{"glyphs":{"0":{"ha":1146,"x_min":7,"x_max":1440,"o":"m 469 733 l 1403 733 q 1440 700 1440 733 q 1431 667 1440 685 l 1083 67 q 1037 19 1068 39 q 979 0 1006 0 l 46 0 q 7 33 7 0 q 17 67 7 49 l 364 667 q 410 714 379 694 q 469 733 442 733 m 656 133 l 925 600 q 935 633 935 618 q 897 667 935 667 l 897 667 q 839 647 869 667 q 792 600 808 628 l 522 133 q 513 100 513 115 q 550 67 513 67 l 550 67 q 609 86 578 67 q 656 133 640 106 "},"1":{"ha":528,"x_min":7,"x_max":840,"o":"m 603 733 l 803 733 q 840 700 840 733 q 831 667 840 685 l 483 67 q 437 19 468 39 q 379 0 406 0 l 46 0 q 7 33 7 0 q 17 67 7 49 l 325 600 q 372 647 342 628 q 431 667 403 667 q 516 700 479 667 q 603 733 553 733 "},"2":{"ha":1104,"x_min":-7,"x_max":1426,"o":"m 1196 400 l 729 400 l 729 400 q 671 381 701 400 q 624 333 640 361 l 508 133 q 499 100 499 115 q 536 67 499 67 l 536 67 q 595 86 564 67 q 642 133 626 106 l 681 200 q 727 247 696 228 q 786 267 758 267 l 1119 267 q 1157 233 1157 267 q 1147 200 1157 218 l 1051 33 q 965 0 1032 0 l 32 0 q -7 33 -7 0 q 3 67 -7 49 l 196 400 q 242 447 211 428 q 301 467 274 467 l 768 467 l 768 467 q 826 486 794 467 q 872 533 857 506 l 911 600 q 921 633 921 618 q 883 667 921 667 l 883 667 q 825 647 856 667 q 778 600 794 628 l 778 600 q 731 553 763 572 q 672 533 700 533 l 339 533 q 301 567 301 533 q 311 600 301 582 l 369 700 q 456 733 389 733 l 1389 733 q 1426 700 1426 733 q 1417 667 1426 685 l 1301 467 q 1254 419 1285 439 q 1196 400 1224 400 "},"3":{"ha":1118,"x_min":0,"x_max":1433,"o":"m 1242 467 q 1189 457 1217 467 q 1153 424 1153 444 q 1203 400 1153 400 l 1203 400 q 1242 367 1242 400 q 1231 333 1242 351 l 1076 67 q 1030 19 1061 39 q 972 0 999 0 l 39 0 q 0 33 0 0 q 10 67 0 49 l 126 267 q 172 314 142 294 q 231 333 203 333 l 564 333 q 603 300 603 333 q 593 267 603 285 l 515 133 q 506 100 506 115 q 543 67 506 67 l 543 67 q 602 86 571 67 q 649 133 633 106 l 764 333 q 775 367 775 351 q 736 400 775 400 l 736 400 q 686 424 686 400 q 722 457 686 444 q 775 467 750 467 l 775 467 q 833 486 801 467 q 879 533 864 506 l 918 600 q 928 633 928 618 q 890 667 928 667 l 890 667 q 832 647 863 667 q 785 600 801 628 l 785 600 q 738 553 769 572 q 679 533 707 533 l 346 533 q 308 567 308 533 q 318 600 308 582 l 357 667 q 403 714 372 694 q 463 733 435 733 l 1396 733 q 1433 700 1433 733 q 1424 667 1433 685 l 1346 533 q 1299 486 1331 506 q 1255 467 1268 467 q 1242 467 1242 467 "},"4":{"ha":1118,"x_min":229,"x_max":1432,"o":"m 1060 733 l 1393 733 q 1432 700 1432 733 q 1422 667 1432 685 l 1075 67 q 1028 19 1060 39 q 969 0 997 0 l 636 0 q 599 33 599 0 q 608 67 599 49 l 763 333 q 772 367 772 351 q 735 400 772 400 l 268 400 q 229 433 229 400 q 239 467 229 449 l 356 667 q 401 714 371 694 q 460 733 432 733 l 793 733 q 832 700 832 733 q 822 667 832 685 l 744 533 q 735 500 735 515 q 772 467 735 467 l 772 467 q 831 486 800 467 q 878 533 863 506 l 956 667 q 1001 714 971 694 q 1060 733 1032 733 "},"5":{"ha":1139,"x_min":0,"x_max":1457,"o":"m 1368 667 l 901 667 q 843 647 874 667 q 797 600 813 628 l 758 533 q 747 500 747 515 q 786 467 747 467 l 1253 467 q 1292 433 1292 467 q 1281 400 1292 418 l 1089 67 q 1042 19 1072 39 q 983 0 1011 0 l 50 0 q 0 24 0 0 q 3 33 0 29 l 99 200 q 146 247 115 228 q 204 267 176 267 l 538 267 q 576 233 576 267 q 565 200 576 218 l 528 133 q 517 100 517 115 q 556 67 517 67 l 556 67 q 614 86 583 67 q 661 133 644 106 l 776 333 q 786 367 786 351 q 747 400 786 400 l 281 400 q 243 433 243 400 q 253 467 243 449 l 368 667 q 415 714 385 694 q 474 733 446 733 l 1407 733 q 1457 710 1457 733 q 1421 676 1457 689 q 1368 667 1392 667 "},"6":{"ha":1153,"x_min":14,"x_max":1447,"o":"m 1293 533 l 960 533 q 922 567 922 533 q 932 600 922 582 l 932 600 q 942 633 942 618 q 904 667 942 667 l 904 667 q 846 647 876 667 q 799 600 815 628 l 760 533 q 750 500 750 515 q 789 467 750 467 l 1256 467 q 1293 433 1293 467 q 1283 400 1293 418 l 1090 67 q 1044 19 1075 39 q 986 0 1013 0 l 53 0 q 14 33 14 0 q 24 67 14 49 l 371 667 q 417 714 386 694 q 476 733 449 733 l 1410 733 q 1447 700 1447 733 q 1438 667 1447 685 l 1399 600 q 1352 553 1383 572 q 1293 533 1321 533 m 750 400 q 692 381 722 400 q 644 333 661 361 l 529 133 q 519 100 519 115 q 557 67 519 67 l 557 67 q 616 86 585 67 q 663 133 647 106 l 778 333 q 789 367 789 351 q 750 400 789 400 "},"7":{"ha":1132,"x_min":306,"x_max":1431,"o":"m 460 733 l 1393 733 q 1431 700 1431 733 q 1421 667 1431 685 l 1075 67 q 1028 19 1058 39 q 969 0 997 0 l 636 0 q 597 33 597 0 q 608 67 597 49 l 915 600 q 926 633 926 618 q 888 667 926 667 l 888 667 q 829 647 860 667 q 782 600 799 628 l 782 600 q 735 553 767 572 q 678 533 704 533 l 344 533 q 306 567 306 533 q 315 600 306 582 l 354 667 q 401 714 371 694 q 460 733 432 733 "},"8":{"ha":1146,"x_min":8,"x_max":1442,"o":"m 1251 467 q 1197 457 1225 467 q 1161 424 1161 444 q 1211 400 1161 400 l 1211 400 q 1249 367 1249 400 q 1239 333 1249 351 l 1085 67 q 1038 19 1069 39 q 979 0 1007 0 l 46 0 q 8 33 8 0 q 18 67 8 49 l 172 333 q 219 381 188 361 q 278 400 250 400 l 278 400 q 329 410 301 400 q 365 443 365 422 q 315 467 365 467 l 315 467 q 278 500 278 467 q 288 533 278 515 l 364 667 q 411 714 381 694 q 469 733 442 733 l 1403 733 q 1442 700 1442 733 q 1431 667 1442 685 l 1354 533 q 1308 486 1339 506 q 1264 467 1276 467 q 1251 467 1251 467 m 657 133 l 772 333 q 782 367 782 351 q 744 400 782 400 l 744 400 q 685 381 717 400 q 639 333 654 361 l 524 133 q 513 100 513 115 q 551 67 513 67 l 551 67 q 610 86 579 67 q 657 133 640 106 m 888 533 l 926 600 q 936 633 936 618 q 897 667 936 667 l 897 667 q 840 647 871 667 q 793 600 808 628 l 754 533 q 744 500 744 515 q 782 467 744 467 l 782 467 q 841 486 810 467 q 888 533 872 506 "},"9":{"ha":1146,"x_min":14,"x_max":1447,"o":"m 1436 667 l 1090 67 q 1043 19 1074 39 q 985 0 1013 0 l 53 0 q 14 33 14 0 q 24 67 14 49 l 140 267 q 186 314 156 294 q 244 333 217 333 l 578 333 q 617 300 617 333 q 607 267 617 285 l 529 133 q 519 100 519 115 q 557 67 519 67 q 615 86 585 67 q 663 133 646 106 l 778 333 q 788 367 788 351 q 749 400 788 400 l 283 400 q 244 433 244 400 q 256 467 244 449 l 371 667 q 417 714 386 694 q 476 733 449 733 l 1408 733 q 1447 700 1447 733 q 1436 667 1447 685 m 788 467 q 846 486 815 467 q 893 533 876 506 l 932 600 q 942 633 942 618 q 904 667 942 667 q 846 647 876 667 q 799 600 815 628 l 760 533 q 750 500 750 515 q 788 467 750 467 "}," ":{"ha":674,"x_min":0,"x_max":0,"o":""},"!":{"ha":522,"x_min":4,"x_max":1224,"o":"m 197 267 l 531 267 q 569 233 569 267 q 558 200 569 218 l 482 67 q 435 19 465 39 q 376 0 404 0 l 43 0 q 4 33 4 0 q 15 67 4 49 l 92 200 q 139 247 108 228 q 197 267 169 267 m 607 400 l 274 400 q 236 433 236 400 q 246 467 236 449 l 746 1333 q 793 1381 763 1361 q 851 1400 824 1400 l 1185 1400 q 1224 1367 1224 1400 q 1213 1333 1224 1351 l 713 467 q 666 419 697 439 q 607 400 635 400 "},"\"":{"ha":1128,"x_min":408,"x_max":1660,"o":"m 1288 1133 l 1621 1133 q 1660 1100 1660 1133 q 1649 1067 1660 1085 l 1264 400 q 1221 364 1243 364 q 1200 376 1208 364 l 1015 690 q 1008 725 1008 703 q 1029 800 1008 764 l 1182 1067 q 1229 1114 1199 1094 q 1288 1133 1260 1133 m 688 1133 l 1021 1133 q 1060 1100 1060 1133 q 1049 1067 1060 1085 l 664 400 q 621 364 643 364 q 600 376 608 364 l 415 690 q 408 725 408 703 q 429 800 408 764 l 582 1067 q 629 1114 599 1094 q 688 1133 660 1133 "},"#":{"ha":1385,"x_min":42,"x_max":1703,"o":"m 1615 533 q 1511 467 1588 483 q 1406 400 1435 450 l 1406 400 q 1396 367 1396 382 q 1434 333 1396 339 q 1472 300 1472 328 q 1463 267 1472 285 l 1385 133 q 1280 67 1357 83 q 1175 0 1203 50 l 1175 0 q 1128 -47 1158 -28 q 1069 -67 1097 -67 l 736 -67 q 697 -33 697 -67 q 708 0 697 -18 l 708 0 q 718 33 718 18 q 679 67 718 67 l 679 67 q 622 47 653 67 q 575 0 590 28 l 575 0 q 528 -47 558 -28 q 469 -67 497 -67 l 136 -67 q 97 -33 97 -67 q 108 0 97 -18 l 108 0 q 118 33 118 18 q 79 67 118 67 l 79 67 q 42 100 42 67 q 51 133 42 115 l 129 267 q 175 314 144 294 q 233 333 206 333 l 233 333 q 292 353 261 333 q 339 400 324 372 l 339 400 q 349 433 349 418 q 311 467 349 467 l 311 467 q 272 500 272 467 q 282 533 272 515 l 360 667 q 406 714 375 694 q 465 733 438 733 l 465 733 q 523 753 492 733 q 569 800 554 772 l 569 800 q 617 847 586 828 q 675 867 647 867 l 1008 867 q 1047 833 1047 867 q 1036 800 1047 818 l 1036 800 q 1026 767 1026 782 q 1065 733 1026 733 l 1065 733 q 1123 753 1092 733 q 1169 800 1154 772 l 1169 800 q 1217 847 1186 828 q 1275 867 1247 867 l 1608 867 q 1647 833 1647 867 q 1636 800 1647 818 l 1636 800 q 1626 767 1626 782 q 1665 733 1626 739 q 1703 700 1703 728 q 1693 667 1703 685 l 1615 533 m 833 333 q 892 353 861 333 q 939 400 924 372 l 939 400 q 949 433 949 418 q 911 467 949 467 l 911 467 q 852 447 883 467 q 806 400 821 428 l 806 400 q 796 367 796 382 q 833 333 796 333 "},"$":{"ha":1146,"x_min":0,"x_max":1433,"o":"m 1242 467 l 908 467 q 869 500 869 467 q 881 533 869 515 l 918 600 q 929 633 929 618 q 890 667 929 667 q 832 647 863 667 q 785 600 801 628 l 708 467 q 699 433 699 449 q 736 400 699 400 l 1203 400 q 1242 367 1242 400 q 1231 333 1242 351 l 1078 67 q 1031 19 1061 39 q 972 0 1000 0 l 639 0 q 581 -19 611 0 q 533 -67 550 -39 l 379 -333 q 336 -369 358 -369 q 315 -357 324 -369 l 131 -43 q 39 0 106 0 q 0 33 0 0 q 11 67 0 49 l 88 200 q 134 247 103 228 q 193 267 165 267 l 526 267 q 564 233 564 267 q 554 200 564 218 l 515 133 q 506 100 506 115 q 544 67 506 67 q 602 86 571 67 q 649 133 633 106 l 726 267 q 736 300 736 285 q 697 333 736 333 l 231 333 q 193 367 193 333 q 203 400 193 382 l 357 667 q 403 714 372 694 q 463 733 435 733 l 796 733 q 854 753 824 733 q 900 800 885 772 l 1054 1067 q 1099 1103 1075 1103 q 1118 1090 1111 1103 l 1303 776 q 1396 733 1329 733 q 1433 700 1433 733 q 1424 667 1433 685 l 1347 533 q 1300 486 1331 506 q 1242 467 1269 467 "},"%":{"ha":1540,"x_min":353,"x_max":1497,"o":"m 1379 783 l 668 -450 q 624 -486 647 -486 q 604 -472 611 -486 l 419 -160 q 411 -125 411 -146 q 432 -50 411 -85 l 1144 1183 q 1188 1219 1165 1219 q 1208 1207 1200 1219 l 1393 893 q 1400 858 1400 881 q 1379 783 1400 819 m 757 1033 q 856 1001 821 1033 q 892 917 892 969 q 856 800 892 863 q 692 635 800 703 q 488 567 585 567 q 388 599 424 567 q 353 683 353 631 q 389 800 353 738 q 553 965 444 897 q 757 1033 661 1033 m 1363 233 q 1461 201 1425 233 q 1497 117 1497 169 q 1461 0 1497 63 q 1297 -165 1404 -97 q 1093 -233 1189 -233 q 994 -201 1029 -233 q 958 -117 958 -169 q 994 0 958 -62 q 1158 165 1050 97 q 1363 233 1265 233 "},"&":{"ha":1403,"x_min":4,"x_max":1592,"o":"m 1540 400 q 1494 353 1525 372 q 1435 333 1463 333 l 1435 333 q 1377 314 1408 333 q 1331 267 1346 294 l 1215 67 q 1168 19 1199 39 q 1110 0 1138 0 l 43 0 q 4 33 4 0 q 15 67 4 49 l 515 933 q 562 981 531 961 q 621 1000 593 1000 l 1554 1000 q 1592 967 1592 1000 q 1582 933 1592 951 l 1506 800 q 1458 753 1489 772 q 1400 733 1428 733 l 933 733 l 933 733 q 875 714 906 733 q 828 667 844 694 l 519 133 q 510 100 510 115 q 549 67 510 67 l 682 67 q 740 86 708 67 q 786 133 771 106 l 864 267 q 874 300 874 285 q 835 333 874 333 l 835 333 q 797 367 797 333 q 807 400 797 382 q 854 447 824 428 q 913 467 885 467 l 913 467 q 1017 533 961 467 q 1122 600 1074 600 l 1456 600 q 1494 567 1494 600 q 1484 533 1494 554 q 1474 500 1474 513 q 1513 467 1474 467 l 1513 467 q 1551 433 1551 467 q 1540 400 1551 418 m 943 867 q 933 833 933 849 q 972 800 933 800 l 972 800 q 1030 819 999 800 q 1076 867 1061 839 q 1088 900 1088 885 q 1049 933 1088 933 l 1049 933 q 990 914 1021 933 q 943 867 960 894 "},"'":{"ha":528,"x_min":410,"x_max":1061,"o":"m 689 1133 l 1022 1133 q 1061 1100 1061 1133 q 1051 1067 1061 1085 l 667 400 q 622 364 646 364 q 601 376 610 364 l 418 690 q 410 725 410 703 q 431 800 410 764 l 585 1067 q 631 1114 600 1094 q 689 1133 663 1133 "},"(":{"ha":917,"x_min":32,"x_max":1318,"o":"m 1125 867 l 547 -133 q 538 -167 538 -151 q 582 -201 538 -196 q 626 -224 626 -206 q 589 -257 626 -244 q 538 -267 561 -267 l 71 -267 q 32 -233 32 -267 q 42 -200 32 -218 l 697 933 q 744 981 713 961 q 801 1000 775 1000 l 1268 1000 q 1318 976 1318 1000 q 1282 943 1318 956 q 1231 933 1254 933 q 1172 914 1203 933 q 1125 867 1140 894 "},")":{"ha":921,"x_min":-133,"x_max":1154,"o":"m 649 1000 l 1115 1000 q 1154 967 1154 1000 q 1143 933 1154 951 l 489 -200 q 442 -247 474 -228 q 383 -267 411 -267 l -83 -267 q -133 -243 -133 -267 q -96 -210 -133 -222 q -42 -200 -68 -200 q 14 -181 -17 -200 q 61 -133 44 -161 l 639 867 q 649 900 649 885 q 604 935 649 929 q 560 957 560 940 q 596 990 560 978 q 649 1000 625 1000 "},"*":{"ha":1022,"x_min":331,"x_max":1361,"o":"m 1350 732 l 1274 599 q 1227 551 1258 571 q 1168 532 1196 532 l 1068 532 q 1010 513 1040 532 q 964 465 979 493 l 810 199 q 765 163 789 163 q 746 175 753 163 l 535 532 l 368 532 q 331 565 331 532 q 340 599 331 581 l 417 732 q 464 779 433 760 q 522 799 494 799 l 622 799 q 681 818 650 799 q 728 865 711 838 l 882 1132 q 925 1168 903 1168 q 946 1156 938 1168 l 1131 842 q 1222 799 1156 799 l 1322 799 q 1361 765 1361 799 q 1350 732 1361 750 "},"+":{"ha":1118,"x_min":115,"x_max":1356,"o":"m 1150 599 l 1317 599 q 1356 565 1356 599 q 1346 532 1356 550 l 1192 265 q 1144 218 1175 238 q 1086 199 1114 199 l 919 199 q 861 179 892 199 q 814 132 831 160 l 718 -35 q 632 -68 699 -68 l 299 -68 q 249 -43 249 -68 q 251 -35 249 -39 l 347 132 q 358 165 358 150 q 319 199 358 199 l 153 199 q 115 232 115 199 q 125 265 115 247 l 279 532 q 326 579 294 560 q 383 599 357 599 l 550 599 q 609 618 578 599 q 656 665 640 638 l 733 799 l 733 799 q 780 846 749 826 q 838 865 811 865 l 1171 865 q 1210 832 1210 865 q 1200 799 1210 817 l 1122 665 l 1122 665 q 1113 632 1113 647 q 1150 599 1113 599 "},",":{"ha":542,"x_min":0,"x_max":651,"o":"m 279 400 l 613 400 q 651 367 651 400 q 642 333 651 351 l 257 -333 q 213 -369 236 -369 q 192 -357 200 -369 l 8 -43 q 0 -8 0 -31 q 21 67 0 31 l 175 333 q 222 381 190 361 q 279 400 253 400 "},"-":{"ha":1164,"x_min":133,"x_max":1374,"o":"m 403 599 l 1336 599 q 1374 565 1374 599 q 1364 532 1374 550 l 1210 265 q 1163 218 1194 238 q 1104 199 1132 199 l 171 199 q 133 232 133 199 q 143 265 133 247 l 297 532 q 344 579 313 560 q 403 599 375 599 "},".":{"ha":542,"x_min":7,"x_max":649,"o":"m 379 0 l 46 0 q 7 33 7 0 q 17 67 7 49 l 171 333 q 218 381 188 361 q 276 400 249 400 l 610 400 q 649 367 649 400 q 638 333 649 351 l 483 67 q 437 19 468 39 q 379 0 406 0 "},"/":{"ha":554,"x_min":-137,"x_max":1017,"o":"m 996 933 l 119 -583 q 76 -619 99 -619 q 56 -607 63 -619 l -129 -293 q -137 -256 -137 -279 q -121 -192 -137 -221 l 760 1333 q 804 1369 781 1369 q 824 1357 817 1369 l 1008 1043 q 1017 1008 1017 1031 q 996 933 1017 969 "},":":{"ha":550,"x_min":24,"x_max":857,"o":"m 664 467 l 331 467 q 292 500 292 467 q 303 533 292 515 l 379 667 q 426 714 396 694 q 485 733 457 733 l 818 733 q 857 700 857 733 q 846 667 857 685 l 769 533 q 722 486 753 506 q 664 467 692 467 m 394 0 l 61 0 q 24 33 24 0 q 33 67 24 49 l 188 333 q 234 381 203 361 q 292 400 265 400 l 625 400 q 664 367 664 400 q 654 333 664 351 l 500 67 q 453 19 483 39 q 394 0 422 0 "},";":{"ha":550,"x_min":10,"x_max":853,"o":"m 482 733 l 815 733 q 853 700 853 733 q 843 667 853 685 l 765 533 q 719 486 750 506 q 661 467 689 467 l 328 467 q 289 500 289 467 q 299 533 289 515 l 376 667 q 423 714 392 694 q 482 733 454 733 m 29 67 l 183 333 q 231 381 200 361 q 289 400 261 400 l 622 400 q 661 367 661 400 q 650 333 661 351 l 265 -333 q 221 -369 244 -369 q 201 -357 208 -369 l 17 -43 q 10 -8 10 -31 q 29 67 10 31 "},"<":{"ha":765,"x_min":4,"x_max":888,"o":"m 479 290 l 664 -24 q 668 -39 668 -31 q 622 -67 668 -67 l 289 -67 q 197 -24 222 -67 l 13 290 q 4 325 4 303 q 25 400 4 364 l 410 1067 q 457 1114 426 1094 q 515 1133 488 1133 l 849 1133 q 888 1100 888 1133 q 876 1067 888 1085 l 492 400 q 471 325 471 364 q 479 290 471 303 "},"=":{"ha":1044,"x_min":64,"x_max":1326,"o":"m 488 733 l 1288 733 q 1326 700 1326 733 q 1315 667 1326 685 l 1239 533 q 1192 486 1222 506 q 1133 467 1161 467 l 333 467 q 294 500 294 467 q 306 533 294 515 l 382 667 q 429 714 399 694 q 488 733 460 733 m 257 333 l 1057 333 q 1094 300 1094 333 q 1085 267 1094 285 l 1008 133 q 961 86 992 106 q 903 67 931 67 l 103 67 q 64 100 64 67 q 75 133 64 115 l 151 267 q 198 314 167 294 q 257 333 229 333 "},">":{"ha":596,"x_min":4,"x_max":899,"o":"m 388 -67 l 54 -67 q 4 -43 4 -67 q 7 -33 4 -37 l 46 33 l 104 133 l 411 667 q 432 742 432 703 q 425 776 432 764 l 240 1090 q 235 1106 235 1099 q 281 1133 235 1133 l 614 1133 q 707 1090 681 1133 l 892 776 q 899 742 899 764 q 878 667 899 703 l 493 0 q 447 -47 478 -28 q 388 -67 415 -67 "},"?":{"ha":1146,"x_min":-4,"x_max":1360,"o":"m 188 267 l 521 267 q 560 233 560 267 q 550 200 560 218 l 472 67 q 426 19 457 39 q 367 0 394 0 l 33 0 q -4 33 -4 0 q 6 67 -4 49 l 83 200 q 129 247 99 228 q 188 267 160 267 m 349 1133 l 815 1133 l 815 1133 q 865 1110 865 1133 q 829 1076 865 1089 q 776 1067 800 1067 q 718 1047 749 1067 q 671 1000 688 1028 l 633 933 q 586 886 617 906 q 528 867 556 867 l 194 867 q 156 900 156 867 q 167 933 156 915 l 243 1067 q 290 1114 258 1094 q 349 1133 321 1133 m 742 533 l 703 467 q 656 419 688 439 q 599 400 625 400 l 265 400 q 226 433 226 400 q 236 467 226 449 l 351 667 q 399 714 368 694 q 457 733 429 733 l 624 733 q 682 753 651 733 q 729 800 713 772 l 883 1067 q 930 1114 899 1094 q 988 1133 961 1133 l 1321 1133 q 1360 1100 1360 1133 q 1350 1067 1360 1085 l 1119 667 q 1072 619 1103 639 q 1014 600 1042 600 l 847 600 q 789 581 819 600 q 742 533 758 561 "},"A":{"ha":1132,"x_min":-7,"x_max":1426,"o":"m 456 733 l 1389 733 q 1426 700 1426 733 q 1417 667 1426 685 l 1069 67 q 1023 19 1054 39 q 965 0 992 0 l 32 0 q -7 33 -7 0 q 3 67 -7 49 l 157 333 q 204 381 174 361 q 263 400 235 400 l 729 400 l 729 400 q 788 419 757 400 q 835 467 818 439 l 911 600 q 921 633 921 618 q 883 667 921 667 l 883 667 q 825 647 856 667 q 778 600 794 628 l 739 533 q 692 486 724 506 q 635 467 661 467 l 301 467 q 263 500 263 467 q 272 533 263 515 l 350 667 q 397 714 365 694 q 456 733 428 733 m 642 133 l 719 267 q 729 300 729 285 q 690 333 729 333 l 690 333 q 632 314 663 333 q 586 267 601 294 l 508 133 q 499 100 499 115 q 536 67 499 67 l 536 67 q 595 86 564 67 q 642 133 626 106 "},"B":{"ha":1118,"x_min":10,"x_max":1443,"o":"m 938 733 l 1404 733 q 1443 700 1443 733 q 1432 667 1443 685 l 1086 67 q 1040 19 1071 39 q 981 0 1008 0 l 47 0 q 10 33 10 0 q 19 67 10 49 l 664 1183 q 708 1219 685 1219 q 728 1207 721 1219 l 913 893 q 921 856 921 879 q 904 792 921 821 q 897 765 897 778 q 938 733 897 733 m 658 133 l 928 600 q 938 633 938 618 q 899 667 938 667 q 841 647 872 667 q 794 600 810 628 l 525 133 q 514 100 514 115 q 553 67 514 67 q 611 86 581 67 q 658 133 642 106 "},"C":{"ha":1118,"x_min":0,"x_max":1433,"o":"m 1242 467 l 908 467 q 869 500 869 467 q 879 533 869 515 l 918 600 q 928 633 928 618 q 890 667 928 667 l 890 667 q 832 647 863 667 q 785 600 801 628 l 515 133 q 506 100 506 115 q 543 67 506 67 l 543 67 q 602 86 571 67 q 649 133 633 106 l 764 333 q 811 381 781 361 q 869 400 842 400 l 1203 400 q 1242 367 1242 400 q 1231 333 1242 351 l 1076 67 q 1030 19 1061 39 q 972 0 999 0 l 39 0 q 0 33 0 0 q 10 67 0 49 l 357 667 q 403 714 372 694 q 463 733 435 733 l 1396 733 q 1433 700 1433 733 q 1424 667 1433 685 l 1346 533 q 1299 486 1331 506 q 1242 467 1268 467 "},"D":{"ha":1118,"x_min":-10,"x_max":1503,"o":"m 1310 1207 l 1494 893 q 1503 856 1503 879 q 1486 792 1503 821 l 1068 67 q 1021 19 1051 39 q 963 0 990 0 l 29 0 q -10 33 -10 0 q 1 67 -10 49 l 347 667 q 394 714 364 694 q 453 733 425 733 l 919 733 l 919 733 q 978 753 947 733 q 1025 800 1008 772 l 1246 1183 q 1290 1219 1267 1219 q 1310 1207 1303 1219 m 640 133 l 908 600 q 919 633 919 618 q 881 667 919 667 l 881 667 q 822 647 853 667 q 775 600 792 628 l 507 133 q 496 100 496 115 q 535 67 496 67 l 535 67 q 593 86 563 67 q 640 133 624 106 "},"E":{"ha":1118,"x_min":-4,"x_max":1429,"o":"m 693 333 q 635 314 665 333 q 588 267 604 294 l 511 133 q 500 100 500 115 q 539 67 500 67 q 597 86 567 67 q 644 133 628 106 l 683 200 q 729 247 699 228 q 788 267 760 267 l 1121 267 q 1160 233 1160 267 q 1150 200 1160 218 l 1072 67 q 1026 19 1057 39 q 967 0 994 0 l 33 0 q -4 33 -4 0 q 6 67 -4 49 l 353 667 q 399 714 368 694 q 457 733 429 733 l 1390 733 q 1429 700 1429 733 q 1419 667 1429 685 l 1265 400 q 1218 353 1249 372 q 1160 333 1188 333 l 693 333 m 781 600 l 703 467 q 693 433 693 449 q 732 400 693 400 q 790 419 758 400 q 836 467 821 439 l 914 600 q 924 633 924 618 q 886 667 924 667 q 827 647 858 667 q 781 600 796 628 "},"F":{"ha":522,"x_min":-76,"x_max":1210,"o":"m 1122 1067 q 1063 1047 1094 1067 q 1017 1000 1032 1028 l 978 933 q 968 900 968 915 q 1006 867 968 867 l 1006 867 q 1056 843 1056 867 q 1019 810 1056 822 q 968 800 992 800 l 968 800 q 909 781 940 800 q 863 733 878 761 l 181 -449 q 136 -485 160 -485 q 115 -472 124 -485 l -68 -158 q -76 -124 -76 -146 q -56 -49 -76 -85 l 589 1067 q 635 1114 604 1094 q 693 1133 665 1133 l 1160 1133 q 1210 1110 1210 1133 q 1174 1076 1210 1089 q 1122 1067 1146 1067 "},"G":{"ha":1104,"x_min":-4,"x_max":1429,"o":"m 710 -472 l 525 -160 q 517 -121 517 -144 q 533 -58 517 -86 q 542 -32 542 -44 q 500 0 542 0 l 33 0 q -4 33 -4 0 q 6 67 -4 49 l 353 667 q 399 714 368 694 q 457 733 429 733 l 1390 733 q 1429 700 1429 733 q 1419 667 1429 685 l 1342 533 q 1295 486 1326 506 q 1236 467 1264 467 l 903 467 q 865 500 865 467 q 875 533 865 515 l 914 600 q 924 633 924 618 q 886 667 924 667 l 886 667 q 827 647 858 667 q 781 600 796 628 l 511 133 q 500 100 500 115 q 539 67 500 67 l 539 67 q 597 86 567 67 q 644 133 628 106 l 760 333 q 806 381 775 361 q 865 400 838 400 l 1199 400 q 1236 367 1236 400 q 1226 333 1236 351 l 775 -450 q 731 -486 754 -486 q 710 -472 718 -486 "},"H":{"ha":1146,"x_min":-10,"x_max":1425,"o":"m 919 733 l 1386 733 q 1425 700 1425 733 q 1414 667 1425 685 l 1068 67 q 1021 19 1051 39 q 963 0 990 0 l 629 0 q 590 33 590 0 q 601 67 590 49 l 908 600 q 919 633 919 618 q 881 667 919 667 l 881 667 q 822 647 853 667 q 775 600 792 628 l 468 67 q 421 19 451 39 q 363 0 390 0 l 29 0 q -10 33 -10 0 q 1 67 -10 49 l 646 1183 q 690 1219 667 1219 q 710 1207 703 1219 l 894 893 q 903 856 903 879 q 886 792 903 821 q 878 765 878 778 q 919 733 878 733 "},"I":{"ha":536,"x_min":14,"x_max":847,"o":"m 386 0 l 53 0 q 14 33 14 0 q 24 67 14 49 l 371 667 q 417 714 386 694 q 475 733 449 733 l 808 733 q 847 700 847 733 q 838 667 847 685 l 490 67 q 444 19 475 39 q 386 0 413 0 "},"J":{"ha":596,"x_min":-10,"x_max":903,"o":"m 893 668 l 249 -449 q 204 -485 228 -485 q 183 -472 192 -485 l 0 -158 q -10 -121 -10 -144 q 7 -57 -10 -86 l 426 668 q 473 715 442 696 q 532 735 504 735 l 865 735 q 903 701 903 735 q 893 668 903 686 "},"K":{"ha":1146,"x_min":13,"x_max":1447,"o":"m 1436 667 l 1360 533 q 1313 486 1343 506 q 1254 467 1282 467 l 979 467 q 933 439 933 467 q 939 424 933 432 l 1093 160 q 1101 122 1101 146 q 1085 58 1101 88 q 1042 17 1071 35 q 985 0 1013 0 l 651 0 q 613 33 613 0 q 624 67 613 49 l 815 400 q 826 433 826 418 q 788 467 826 467 l 788 467 q 729 447 760 467 q 682 400 699 428 l 490 67 q 443 19 474 39 q 385 0 413 0 l 51 0 q 13 33 13 0 q 24 67 13 49 l 668 1183 q 713 1219 689 1219 q 732 1207 725 1219 l 917 893 q 925 856 925 879 q 908 792 925 821 l 797 600 q 788 567 788 582 q 826 533 788 533 l 826 533 q 885 553 854 533 q 931 600 915 572 l 969 667 q 1017 714 986 694 q 1075 733 1047 733 l 1408 733 q 1447 700 1447 733 q 1436 667 1447 685 "},"L":{"ha":536,"x_min":4,"x_max":917,"o":"m 724 1207 l 908 893 q 917 856 917 879 q 900 792 917 821 l 482 67 q 435 19 465 39 q 376 0 404 0 l 43 0 q 4 33 4 0 q 15 67 4 49 l 439 800 l 660 1183 q 704 1219 681 1219 q 724 1207 717 1219 "},"M":{"ha":1714,"x_min":-10,"x_max":2025,"o":"m 1129 -58 l 1510 600 q 1519 633 1519 618 q 1481 667 1519 667 l 1481 667 q 1422 647 1453 667 q 1376 600 1392 628 l 1068 67 q 1021 19 1051 39 q 963 0 990 0 l 629 0 q 590 33 590 0 q 601 67 590 49 l 908 600 q 919 633 919 618 q 881 667 919 667 l 881 667 q 822 647 853 667 q 775 600 792 628 l 468 67 q 421 19 451 39 q 363 0 390 0 l 29 0 q -10 33 -10 0 q 1 67 -10 49 l 347 667 q 394 714 364 694 q 453 733 425 733 l 1986 733 q 2025 700 2025 733 q 2014 667 2025 685 l 1369 -450 q 1326 -486 1349 -486 q 1306 -472 1314 -486 l 1121 -160 q 1113 -121 1113 -144 q 1129 -58 1113 -86 "},"N":{"ha":1146,"x_min":15,"x_max":1449,"o":"m 476 733 l 1410 733 q 1449 700 1449 733 q 1439 667 1449 685 l 1092 67 q 1045 19 1076 39 q 988 0 1014 0 l 654 0 q 615 33 615 0 q 625 67 615 49 l 933 600 q 943 633 943 618 q 906 667 943 667 q 847 647 878 667 q 800 600 815 628 l 492 67 q 445 19 476 39 q 388 0 414 0 l 54 0 q 15 33 15 0 q 25 67 15 49 l 372 667 q 419 714 388 694 q 476 733 450 733 "},"O":{"ha":1146,"x_min":24,"x_max":1457,"o":"m 485 733 l 1418 733 q 1457 700 1457 733 q 1447 667 1457 685 l 1100 67 q 1053 19 1085 39 q 996 0 1022 0 l 63 0 q 24 33 24 0 q 33 67 24 49 l 381 667 q 427 714 396 694 q 485 733 458 733 m 672 133 l 942 600 q 951 633 951 618 q 914 667 951 667 l 914 667 q 855 647 886 667 q 808 600 824 628 l 539 133 q 529 100 529 115 q 567 67 529 67 l 567 67 q 626 86 594 67 q 672 133 657 106 "},"P":{"ha":1188,"x_min":-10,"x_max":1503,"o":"m 531 733 l 1464 733 q 1503 700 1503 733 q 1493 667 1503 685 l 1146 67 q 1099 19 1131 39 q 1040 0 1068 0 l 574 0 l 574 0 q 516 -19 547 0 q 469 -67 485 -39 l 249 -450 q 204 -486 228 -486 q 183 -472 192 -486 l 0 -160 q -10 -121 -10 -144 q 7 -58 -10 -86 l 426 667 q 472 714 442 694 q 531 733 503 733 m 718 133 l 988 600 q 997 633 997 618 q 960 667 997 667 l 960 667 q 901 647 932 667 q 854 600 869 628 l 585 133 q 574 100 574 115 q 613 67 574 67 l 613 67 q 671 86 640 67 q 718 133 701 106 "},"Q":{"ha":1146,"x_min":8,"x_max":1443,"o":"m 1432 667 l 788 -450 q 743 -486 767 -486 q 724 -474 731 -486 l 539 -160 q 531 -122 531 -146 q 547 -58 531 -87 q 556 -32 556 -44 q 514 0 556 0 l 47 0 q 8 33 8 0 q 19 67 8 49 l 365 667 q 413 714 382 694 q 471 733 443 733 l 1404 733 q 1443 700 1443 733 q 1432 667 1443 685 m 553 67 q 611 86 581 67 q 658 133 642 106 l 928 600 q 938 633 938 618 q 899 667 938 667 l 899 667 q 840 647 871 667 q 794 600 810 628 l 525 133 q 514 100 514 115 q 553 67 514 67 "},"R":{"ha":1146,"x_min":-10,"x_max":1424,"o":"m 451 733 l 1385 733 q 1424 700 1424 733 q 1413 667 1424 685 l 1336 533 q 1290 486 1321 506 q 1231 467 1258 467 l 897 467 q 860 500 860 467 q 869 533 860 515 l 908 600 q 918 633 918 618 q 879 667 918 667 l 879 667 q 822 647 853 667 q 775 600 790 628 l 467 67 q 420 19 451 39 q 361 0 389 0 l 28 0 q -10 33 -10 0 q 0 67 -10 49 l 346 667 q 393 714 363 694 q 451 733 424 733 "},"S":{"ha":1146,"x_min":10,"x_max":1443,"o":"m 1250 467 l 917 467 q 879 500 879 467 q 889 533 879 515 l 928 600 q 938 633 938 618 q 899 667 938 667 q 841 647 872 667 q 794 600 810 628 l 717 467 q 707 433 707 449 q 746 400 707 400 l 1213 400 q 1250 367 1250 400 q 1240 333 1250 351 l 1086 67 q 1040 19 1071 39 q 981 0 1008 0 l 47 0 q 10 33 10 0 q 19 67 10 49 l 96 200 q 143 247 113 228 q 201 267 174 267 l 535 267 q 574 233 574 267 q 563 200 574 218 l 525 133 q 514 100 514 115 q 553 67 514 67 q 611 86 581 67 q 658 133 642 106 l 735 267 q 746 300 746 285 q 707 333 746 333 l 240 333 q 201 367 201 333 q 213 400 201 382 l 365 667 q 413 714 382 694 q 471 733 443 733 l 1404 733 q 1443 700 1443 733 q 1432 667 1443 685 l 1356 533 q 1309 486 1340 506 q 1250 467 1278 467 "},"T":{"ha":513,"x_min":-76,"x_max":1065,"o":"m 863 733 l 181 -450 q 136 -486 160 -486 q 115 -472 124 -486 l -68 -160 q -76 -125 -76 -146 q -56 -50 -76 -85 l 589 1067 q 635 1114 604 1094 q 694 1133 667 1133 l 1028 1133 q 1065 1100 1065 1133 q 1056 1067 1065 1085 l 978 933 q 968 900 968 915 q 1007 867 968 867 l 1007 867 q 1057 843 1057 867 q 1021 810 1057 822 q 968 800 992 800 l 968 800 q 910 781 940 800 q 863 733 879 761 "},"U":{"ha":1118,"x_min":10,"x_max":1443,"o":"m 1071 733 l 1404 733 q 1443 700 1443 733 q 1432 667 1443 685 l 1086 67 q 1040 19 1071 39 q 981 0 1008 0 l 47 0 q 10 33 10 0 q 19 67 10 49 l 365 667 q 413 714 382 694 q 471 733 443 733 l 804 733 q 843 700 843 733 q 832 667 843 685 l 525 133 q 514 100 514 115 q 553 67 514 67 q 611 86 581 67 q 658 133 642 106 l 965 667 q 1013 714 982 694 q 1071 733 1043 733 "},"V":{"ha":917,"x_min":22,"x_max":1236,"o":"m 864 733 l 1197 733 q 1236 700 1236 733 q 1225 667 1236 685 l 879 67 q 833 19 864 39 q 774 0 801 0 l 307 0 q 215 43 240 0 l 31 357 q 24 392 24 369 q 43 467 22 431 l 158 667 q 206 714 175 694 q 264 733 236 733 l 597 733 q 636 700 636 733 q 625 667 636 685 l 318 133 q 307 100 307 115 q 346 67 307 67 q 404 86 374 67 q 451 133 435 106 l 758 667 q 806 714 775 694 q 864 733 836 733 "},"W":{"ha":1499,"x_min":0,"x_max":1813,"o":"m 1440 733 l 1774 733 q 1813 700 1813 733 q 1803 667 1813 685 l 1456 67 q 1409 19 1440 39 q 1350 0 1378 0 l 218 0 l 8 357 q 0 392 0 369 q 21 467 0 431 l 136 667 q 183 714 151 694 q 242 733 214 733 l 575 733 q 613 700 613 733 q 603 667 613 685 l 294 133 q 285 100 285 115 q 324 67 285 67 q 381 86 350 67 q 428 133 413 106 l 736 667 q 783 714 751 694 q 842 733 814 733 l 1175 733 q 1213 700 1213 733 q 1203 667 1213 685 l 894 133 q 885 100 885 115 q 922 67 885 67 q 981 86 950 67 q 1028 133 1011 106 l 1336 667 q 1382 714 1351 694 q 1440 733 1413 733 "},"X":{"ha":1104,"x_min":-4,"x_max":1428,"o":"m 265 400 l 597 400 q 650 410 621 400 q 686 443 686 422 q 636 467 686 467 l 303 467 q 264 500 264 467 q 275 533 264 515 l 351 667 q 398 714 367 694 q 457 733 429 733 l 790 733 q 828 700 828 733 q 818 667 828 685 l 779 600 q 769 567 769 582 q 808 533 769 533 l 808 533 q 866 553 835 533 q 913 600 897 572 l 951 667 q 998 714 967 694 q 1057 733 1029 733 l 1390 733 q 1428 700 1428 733 q 1418 667 1428 685 l 1342 533 q 1294 486 1325 506 q 1236 467 1264 467 l 903 467 q 850 457 879 467 q 814 424 814 444 q 864 400 814 400 l 1197 400 q 1236 367 1236 400 q 1225 333 1236 351 l 1072 67 q 1025 19 1056 39 q 967 0 994 0 l 633 0 q 594 33 594 0 q 606 67 594 49 l 721 267 q 731 300 731 285 q 693 333 731 333 q 635 314 665 333 q 588 267 604 294 l 472 67 q 426 19 457 39 q 367 0 394 0 l 33 0 q -4 33 -4 0 q 6 67 -4 49 l 160 333 q 206 381 175 361 q 265 400 238 400 "},"Y":{"ha":1156,"x_min":4,"x_max":1438,"o":"m 719 -474 l 535 -160 q 526 -122 526 -146 q 543 -58 526 -87 q 550 -32 550 -44 q 510 0 550 0 l 43 0 q 4 33 4 0 q 15 67 4 49 l 361 667 q 408 714 378 694 q 467 733 439 733 l 800 733 q 838 700 838 733 q 828 667 838 685 l 519 133 q 510 100 510 115 q 549 67 510 67 l 549 67 q 606 86 575 67 q 653 133 638 106 l 961 667 q 1008 714 978 694 q 1067 733 1039 733 l 1400 733 q 1438 700 1438 733 q 1428 667 1438 685 l 783 -450 q 739 -486 763 -486 q 719 -474 726 -486 "},"Z":{"ha":1146,"x_min":-4,"x_max":1429,"o":"m 539 67 l 1006 67 q 1056 43 1056 67 q 1019 10 1056 22 q 967 0 992 0 l 33 0 q -4 33 -4 0 q 6 67 -4 49 l 160 333 q 206 381 175 361 q 265 400 238 400 l 732 400 l 732 400 q 790 419 758 400 q 836 467 821 439 l 914 600 q 924 633 924 618 q 886 667 924 667 l 419 667 q 368 690 368 667 q 406 724 368 711 q 457 733 433 733 l 1390 733 q 1429 700 1429 733 q 1419 667 1429 685 l 1265 400 q 1218 353 1249 372 q 1160 333 1188 333 l 693 333 l 693 333 q 635 314 665 333 q 588 267 604 294 l 511 133 q 500 100 500 115 q 539 67 500 67 "},"[":{"ha":875,"x_min":-124,"x_max":1163,"o":"m 969 867 l 392 -133 q 382 -167 382 -151 q 426 -201 382 -196 q 469 -224 469 -206 q 433 -257 469 -244 q 382 -267 406 -267 l -85 -267 q -124 -233 -124 -267 q -114 -200 -124 -218 l 540 933 q 588 981 557 961 q 646 1000 618 1000 l 1113 1000 q 1163 976 1163 1000 q 1126 943 1163 956 q 1073 933 1099 933 q 1016 914 1047 933 q 969 867 985 894 "},"\\":{"ha":1146,"x_min":7,"x_max":1149,"o":"m 776 1000 l 1110 1000 q 1149 967 1149 1000 q 1139 933 1149 951 l 483 -200 q 437 -247 468 -228 q 379 -267 406 -267 l 46 -267 q 7 -233 7 -267 q 17 -200 7 -218 l 672 933 q 718 981 688 961 q 776 1000 749 1000 "},"]":{"ha":857,"x_min":18,"x_max":1306,"o":"m 800 1000 l 1267 1000 q 1306 967 1306 1000 q 1294 933 1306 951 l 640 -200 q 594 -247 625 -228 q 535 -267 563 -267 l 68 -267 q 18 -243 18 -267 q 54 -210 18 -222 q 109 -200 83 -200 q 165 -181 135 -200 q 213 -133 196 -161 l 789 867 q 800 900 800 885 q 756 935 800 929 q 711 957 711 940 q 747 990 711 978 q 800 1000 776 1000 "},"a":{"ha":1146,"x_min":21,"x_max":1454,"o":"m 483 733 l 1417 733 q 1454 700 1454 733 q 1444 667 1454 685 l 1097 67 q 1051 19 1082 39 q 993 0 1019 0 l 60 0 q 21 33 21 0 q 31 67 21 49 l 185 333 q 232 381 201 361 q 290 400 263 400 l 757 400 l 757 400 q 815 419 785 400 q 863 467 846 439 l 939 600 q 949 633 949 618 q 911 667 949 667 l 911 667 q 853 647 883 667 q 806 600 822 628 l 767 533 q 720 486 751 506 q 663 467 689 467 l 329 467 q 290 500 290 467 q 300 533 290 515 l 378 667 q 424 714 393 694 q 483 733 456 733 m 669 133 l 747 267 q 757 300 757 285 q 718 333 757 333 l 718 333 q 660 314 690 333 q 614 267 629 294 l 536 133 q 526 100 526 115 q 564 67 526 67 l 564 67 q 623 86 592 67 q 669 133 654 106 "},"b":{"ha":1146,"x_min":7,"x_max":1440,"o":"m 936 733 l 1403 733 q 1440 700 1440 733 q 1431 667 1440 685 l 1083 67 q 1037 19 1068 39 q 979 0 1006 0 l 46 0 q 7 33 7 0 q 17 67 7 49 l 663 1183 q 706 1219 683 1219 q 726 1207 718 1219 l 911 893 q 919 856 919 879 q 903 792 919 821 q 894 765 894 778 q 936 733 894 733 m 656 133 l 925 600 q 935 633 935 618 q 897 667 935 667 q 839 647 869 667 q 792 600 808 628 l 522 133 q 513 100 513 115 q 550 67 513 67 q 609 86 578 67 q 656 133 640 106 "},"c":{"ha":1118,"x_min":0,"x_max":1433,"o":"m 1242 467 l 908 467 q 869 500 869 467 q 879 533 869 515 l 918 600 q 928 633 928 618 q 890 667 928 667 l 890 667 q 832 647 863 667 q 785 600 801 628 l 515 133 q 506 100 506 115 q 543 67 506 67 l 543 67 q 602 86 571 67 q 649 133 633 106 l 764 333 q 811 381 781 361 q 869 400 842 400 l 1203 400 q 1242 367 1242 400 q 1231 333 1242 351 l 1076 67 q 1030 19 1061 39 q 972 0 999 0 l 39 0 q 0 33 0 0 q 10 67 0 49 l 357 667 q 403 714 372 694 q 463 733 435 733 l 1396 733 q 1433 700 1433 733 q 1424 667 1433 685 l 1346 533 q 1299 486 1331 506 q 1242 467 1268 467 "},"d":{"ha":1132,"x_min":7,"x_max":1519,"o":"m 1326 1207 l 1511 893 q 1519 856 1519 879 q 1503 792 1519 821 l 1083 67 q 1037 19 1068 39 q 979 0 1006 0 l 46 0 q 7 33 7 0 q 17 67 7 49 l 364 667 q 410 714 379 694 q 469 733 442 733 l 936 733 l 936 733 q 994 753 963 733 q 1040 800 1025 772 l 1263 1183 q 1306 1219 1283 1219 q 1326 1207 1318 1219 m 656 133 l 925 600 q 935 633 935 618 q 897 667 935 667 l 897 667 q 839 647 869 667 q 792 600 808 628 l 522 133 q 513 100 513 115 q 550 67 513 67 l 550 67 q 609 86 578 67 q 656 133 640 106 "},"e":{"ha":1132,"x_min":7,"x_max":1440,"o":"m 704 333 q 646 314 676 333 q 600 267 615 294 l 522 133 q 513 100 513 115 q 550 67 513 67 q 609 86 578 67 q 656 133 640 106 l 694 200 q 741 247 710 228 q 800 267 772 267 l 1133 267 q 1171 233 1171 267 q 1161 200 1171 218 l 1083 67 q 1037 19 1068 39 q 979 0 1006 0 l 46 0 q 7 33 7 0 q 17 67 7 49 l 364 667 q 410 714 379 694 q 469 733 442 733 l 1403 733 q 1440 700 1440 733 q 1431 667 1440 685 l 1276 400 q 1230 353 1261 372 q 1171 333 1199 333 l 704 333 m 792 600 l 715 467 q 704 433 704 449 q 743 400 704 400 q 801 419 771 400 q 849 467 832 439 l 925 600 q 935 633 935 618 q 897 667 935 667 q 839 647 869 667 q 792 600 808 628 "},"f":{"ha":540,"x_min":-62,"x_max":1224,"o":"m 1136 1067 q 1077 1047 1108 1067 q 1031 1000 1046 1028 l 992 933 q 982 900 982 915 q 1019 867 982 867 l 1019 867 q 1069 843 1069 867 q 1033 810 1069 822 q 982 800 1006 800 l 982 800 q 923 781 954 800 q 876 733 892 761 l 194 -449 q 150 -485 174 -485 q 129 -472 138 -485 l -54 -158 q -62 -124 -62 -146 q -42 -49 -62 -85 l 603 1067 q 649 1114 618 1094 q 707 1133 679 1133 l 1174 1133 q 1224 1110 1224 1133 q 1188 1076 1224 1089 q 1136 1067 1160 1067 "},"g":{"ha":1132,"x_min":-7,"x_max":1426,"o":"m 708 -472 l 524 -160 q 515 -121 515 -144 q 532 -58 515 -86 q 539 -32 539 -44 q 499 0 539 0 l 32 0 q -7 33 -7 0 q 3 67 -7 49 l 350 667 q 397 714 365 694 q 456 733 428 733 l 1389 733 q 1426 700 1426 733 q 1417 667 1426 685 l 1339 533 q 1292 486 1324 506 q 1235 467 1261 467 l 901 467 q 863 500 863 467 q 872 533 863 515 l 911 600 q 921 633 921 618 q 883 667 921 667 l 883 667 q 825 647 856 667 q 778 600 794 628 l 508 133 q 499 100 499 115 q 536 67 499 67 l 536 67 q 595 86 564 67 q 642 133 626 106 l 757 333 q 804 381 774 361 q 863 400 835 400 l 1196 400 q 1235 367 1235 400 q 1224 333 1235 351 l 772 -450 q 728 -486 751 -486 q 708 -472 715 -486 "},"h":{"ha":1156,"x_min":14,"x_max":1447,"o":"m 943 733 l 1410 733 q 1447 700 1447 733 q 1438 667 1447 685 l 1090 67 q 1044 19 1075 39 q 986 0 1013 0 l 653 0 q 614 33 614 0 q 624 67 614 49 l 932 600 q 942 633 942 618 q 904 667 942 667 l 904 667 q 846 647 876 667 q 799 600 815 628 l 490 67 q 444 19 475 39 q 386 0 413 0 l 53 0 q 14 33 14 0 q 24 67 14 49 l 669 1183 q 713 1219 690 1219 q 733 1207 725 1219 l 918 893 q 926 856 926 879 q 910 792 926 821 q 901 765 901 778 q 943 733 901 733 "},"i":{"ha":546,"x_min":14,"x_max":847,"o":"m 386 0 l 53 0 q 14 33 14 0 q 24 67 14 49 l 371 667 q 417 714 386 694 q 476 733 449 733 l 810 733 q 847 700 847 733 q 838 667 847 685 l 490 67 q 444 19 475 39 q 386 0 413 0 "},"j":{"ha":522,"x_min":-76,"x_max":836,"o":"m 825 668 l 181 -449 q 138 -485 160 -485 q 117 -472 124 -485 l -68 -158 q -76 -121 -76 -144 q -60 -57 -76 -86 l 358 668 q 406 715 375 696 q 464 735 436 735 l 797 735 q 836 701 836 735 q 825 668 836 686 "},"k":{"ha":1118,"x_min":0,"x_max":1433,"o":"m 1424 667 l 1346 533 q 1299 486 1331 506 q 1242 467 1268 467 l 967 467 q 921 439 921 467 q 925 424 921 432 l 1081 160 q 1089 122 1089 146 q 1072 58 1089 88 q 1028 17 1058 35 q 972 0 999 0 l 639 0 q 600 33 600 0 q 610 67 600 49 l 803 400 q 813 433 813 418 q 775 467 813 467 l 775 467 q 716 447 747 467 q 669 400 685 428 l 476 67 q 430 19 461 39 q 372 0 399 0 l 39 0 q 0 33 0 0 q 10 67 0 49 l 656 1183 q 699 1219 676 1219 q 719 1207 711 1219 l 904 893 q 913 856 913 879 q 896 792 913 821 l 785 600 q 775 567 775 582 q 813 533 775 533 l 813 533 q 872 553 840 533 q 918 600 903 572 l 957 667 q 1003 714 972 694 q 1063 733 1035 733 l 1396 733 q 1433 700 1433 733 q 1424 667 1433 685 "},"l":{"ha":546,"x_min":21,"x_max":933,"o":"m 740 1207 l 925 893 q 933 856 933 879 q 917 792 933 821 l 497 67 q 451 19 482 39 q 393 0 419 0 l 60 0 q 21 33 21 0 q 31 67 21 49 l 454 800 l 676 1183 q 719 1219 697 1219 q 740 1207 732 1219 "},"m":{"ha":1706,"x_min":-7,"x_max":2026,"o":"m 1132 -58 l 1511 600 q 1521 633 1521 618 q 1483 667 1521 667 l 1483 667 q 1425 647 1456 667 q 1378 600 1394 628 l 1069 67 q 1023 19 1054 39 q 965 0 992 0 l 632 0 q 593 33 593 0 q 603 67 593 49 l 911 600 q 921 633 921 618 q 883 667 921 667 l 883 667 q 825 647 856 667 q 778 600 794 628 l 469 67 q 423 19 454 39 q 365 0 392 0 l 32 0 q -7 33 -7 0 q 3 67 -7 49 l 350 667 q 397 714 365 694 q 456 733 428 733 l 1989 733 q 2026 700 2026 733 q 2017 667 2026 685 l 1372 -450 q 1328 -486 1351 -486 q 1308 -472 1315 -486 l 1124 -160 q 1115 -121 1115 -144 q 1132 -58 1115 -86 "},"n":{"ha":1132,"x_min":0,"x_max":1433,"o":"m 463 733 l 1396 733 q 1433 700 1433 733 q 1424 667 1433 685 l 1076 67 q 1030 19 1061 39 q 972 0 999 0 l 639 0 q 600 33 600 0 q 610 67 600 49 l 918 600 q 928 633 928 618 q 890 667 928 667 q 832 647 863 667 q 785 600 801 628 l 476 67 q 430 19 461 39 q 372 0 399 0 l 39 0 q 0 33 0 0 q 10 67 0 49 l 357 667 q 403 714 372 694 q 463 733 435 733 "},"o":{"ha":1146,"x_min":7,"x_max":1440,"o":"m 469 733 l 1403 733 q 1440 700 1440 733 q 1431 667 1440 685 l 1083 67 q 1037 19 1068 39 q 979 0 1006 0 l 46 0 q 7 33 7 0 q 17 67 7 49 l 364 667 q 410 714 379 694 q 469 733 442 733 m 656 133 l 925 600 q 935 633 935 618 q 897 667 935 667 l 897 667 q 839 647 869 667 q 792 600 808 628 l 522 133 q 513 100 513 115 q 550 67 513 67 l 550 67 q 609 86 578 67 q 656 133 640 106 "},"p":{"ha":1136,"x_min":-83,"x_max":1429,"o":"m 457 733 l 1390 733 q 1429 700 1429 733 q 1418 667 1429 685 l 1072 67 q 1025 19 1056 39 q 967 0 994 0 l 500 0 l 500 0 q 442 -19 472 0 q 394 -67 411 -39 l 174 -450 q 131 -486 153 -486 q 110 -472 117 -486 l -75 -160 q -83 -121 -83 -144 q -67 -58 -83 -86 l 351 667 q 399 714 368 694 q 457 733 429 733 m 643 133 l 913 600 q 924 633 924 618 q 885 667 924 667 l 885 667 q 826 647 857 667 q 779 600 796 628 l 510 133 q 500 100 500 115 q 539 67 500 67 l 539 67 q 597 86 567 67 q 643 133 628 106 "},"q":{"ha":1146,"x_min":7,"x_max":1440,"o":"m 1431 667 l 786 -450 q 742 -486 765 -486 q 721 -474 729 -486 l 538 -160 q 528 -122 528 -146 q 544 -58 528 -87 q 553 -32 553 -44 q 513 0 553 0 l 46 0 q 7 33 7 0 q 17 67 7 49 l 364 667 q 410 714 379 694 q 469 733 442 733 l 1403 733 q 1440 700 1440 733 q 1431 667 1440 685 m 550 67 q 609 86 578 67 q 656 133 640 106 l 925 600 q 935 633 935 618 q 897 667 935 667 l 897 667 q 839 647 869 667 q 792 600 808 628 l 522 133 q 513 100 513 115 q 550 67 513 67 "},"r":{"ha":1132,"x_min":21,"x_max":1454,"o":"m 483 733 l 1417 733 q 1454 700 1454 733 q 1444 667 1454 685 l 1367 533 q 1320 486 1351 506 q 1263 467 1289 467 l 929 467 q 890 500 890 467 q 900 533 890 515 l 939 600 q 949 633 949 618 q 911 667 949 667 l 911 667 q 853 647 883 667 q 806 600 822 628 l 497 67 q 451 19 482 39 q 393 0 419 0 l 60 0 q 21 33 21 0 q 31 67 21 49 l 378 667 q 424 714 393 694 q 483 733 456 733 "},"s":{"ha":1146,"x_min":21,"x_max":1454,"o":"m 1263 467 l 929 467 q 890 500 890 467 q 900 533 890 515 l 939 600 q 949 633 949 618 q 911 667 949 667 q 853 647 883 667 q 806 600 822 628 l 729 467 q 718 433 718 449 q 757 400 718 400 l 1224 400 q 1263 367 1263 400 q 1251 333 1263 351 l 1097 67 q 1051 19 1082 39 q 993 0 1019 0 l 60 0 q 21 33 21 0 q 31 67 21 49 l 108 200 q 155 247 124 228 q 214 267 186 267 l 547 267 q 585 233 585 267 q 575 200 585 218 l 536 133 q 526 100 526 115 q 564 67 526 67 q 623 86 592 67 q 669 133 654 106 l 747 267 q 757 300 757 285 q 718 333 757 333 l 251 333 q 214 367 214 333 q 224 400 214 382 l 378 667 q 424 714 393 694 q 483 733 456 733 l 1417 733 q 1454 700 1454 733 q 1444 667 1454 685 l 1367 533 q 1320 486 1351 506 q 1263 467 1289 467 "},"t":{"ha":619,"x_min":-69,"x_max":1072,"o":"m 869 733 l 188 -450 q 143 -486 167 -486 q 122 -472 131 -486 l -61 -160 q -69 -125 -69 -146 q -49 -50 -69 -85 l 596 1067 q 642 1114 611 1094 q 701 1133 674 1133 l 1035 1133 q 1072 1100 1072 1133 q 1063 1067 1072 1085 l 985 933 q 975 900 975 915 q 1014 867 975 867 l 1014 867 q 1064 843 1064 867 q 1028 810 1064 822 q 975 800 999 800 l 975 800 q 917 781 947 800 q 869 733 886 761 "},"u":{"ha":1136,"x_min":14,"x_max":1447,"o":"m 1076 733 l 1410 733 q 1447 700 1447 733 q 1438 667 1447 685 l 1090 67 q 1044 19 1075 39 q 986 0 1013 0 l 53 0 q 14 33 14 0 q 24 67 14 49 l 371 667 q 417 714 386 694 q 476 733 449 733 l 810 733 q 847 700 847 733 q 838 667 847 685 l 529 133 q 519 100 519 115 q 557 67 519 67 q 616 86 585 67 q 663 133 647 106 l 971 667 q 1017 714 986 694 q 1076 733 1049 733 "},"v":{"ha":1128,"x_min":222,"x_max":1435,"o":"m 1064 733 l 1397 733 q 1435 700 1435 733 q 1425 667 1435 685 l 1079 67 q 1032 19 1063 39 q 974 0 1001 0 l 507 0 q 414 43 440 0 l 231 357 q 222 392 222 369 q 243 467 222 431 l 358 667 q 405 714 374 694 q 464 733 436 733 l 797 733 q 835 700 835 733 q 825 667 835 685 l 517 133 q 507 100 507 115 q 546 67 507 67 q 603 86 572 67 q 650 133 635 106 l 958 667 q 1005 714 974 694 q 1064 733 1036 733 "},"w":{"ha":1696,"x_min":197,"x_max":2010,"o":"m 1638 733 l 1971 733 q 2010 700 2010 733 q 1999 667 2010 685 l 1653 67 q 1606 19 1638 39 q 1547 0 1575 0 l 415 0 l 204 357 q 197 392 197 369 q 218 467 197 431 l 333 667 q 380 714 349 694 q 439 733 411 733 l 772 733 q 810 700 810 733 q 800 667 810 685 l 492 133 q 482 100 482 115 q 519 67 482 67 q 578 86 547 67 q 625 133 610 106 l 933 667 q 980 714 949 694 q 1039 733 1011 733 l 1372 733 q 1410 700 1410 733 q 1400 667 1410 685 l 1092 133 q 1082 100 1082 115 q 1119 67 1082 67 q 1178 86 1147 67 q 1225 133 1208 106 l 1532 667 q 1579 714 1549 694 q 1638 733 1610 733 "},"x":{"ha":1128,"x_min":7,"x_max":1440,"o":"m 276 400 l 608 400 q 661 410 633 400 q 697 443 697 422 q 647 467 697 467 l 314 467 q 276 500 276 467 q 286 533 276 515 l 363 667 q 410 714 379 694 q 468 733 440 733 l 801 733 q 840 700 840 733 q 829 667 840 685 l 792 600 q 781 567 781 582 q 819 533 781 533 l 819 533 q 878 553 847 533 q 925 600 908 572 l 963 667 q 1010 714 979 694 q 1068 733 1040 733 l 1401 733 q 1440 700 1440 733 q 1429 667 1440 685 l 1353 533 q 1306 486 1336 506 q 1247 467 1275 467 l 914 467 q 863 457 890 467 q 825 424 825 444 q 875 400 825 400 l 1208 400 q 1247 367 1247 400 q 1238 333 1247 351 l 1083 67 q 1036 19 1067 39 q 978 0 1006 0 l 644 0 q 607 33 607 0 q 617 67 607 49 l 732 267 q 742 300 742 285 q 704 333 742 333 q 646 314 676 333 q 600 267 615 294 l 483 67 q 437 19 468 39 q 379 0 406 0 l 46 0 q 7 33 7 0 q 17 67 7 49 l 171 333 q 218 381 188 361 q 276 400 249 400 "},"y":{"ha":1146,"x_min":7,"x_max":1440,"o":"m 721 -474 l 538 -160 q 528 -122 528 -146 q 544 -58 528 -87 q 553 -32 553 -44 q 513 0 553 0 l 46 0 q 7 33 7 0 q 17 67 7 49 l 364 667 q 410 714 379 694 q 469 733 442 733 l 803 733 q 840 700 840 733 q 831 667 840 685 l 522 133 q 513 100 513 115 q 550 67 513 67 l 550 67 q 609 86 578 67 q 656 133 640 106 l 964 667 q 1010 714 979 694 q 1069 733 1042 733 l 1403 733 q 1440 700 1440 733 q 1431 667 1440 685 l 786 -450 q 742 -486 765 -486 q 721 -474 729 -486 "},"z":{"ha":1146,"x_min":-7,"x_max":1426,"o":"m 536 67 l 1003 67 q 1053 43 1053 67 q 1017 10 1053 22 q 965 0 989 0 l 32 0 q -7 33 -7 0 q 3 67 -7 49 l 157 333 q 204 381 174 361 q 263 400 235 400 l 729 400 l 729 400 q 788 419 757 400 q 835 467 818 439 l 911 600 q 921 633 921 618 q 883 667 921 667 l 417 667 q 367 690 367 667 q 403 724 367 711 q 456 733 431 733 l 1389 733 q 1426 700 1426 733 q 1417 667 1426 685 l 1263 400 q 1216 353 1247 372 q 1157 333 1185 333 l 690 333 l 690 333 q 632 314 663 333 q 586 267 601 294 l 508 133 q 499 100 499 115 q 536 67 499 67 "},"{":{"ha":1146,"x_min":31,"x_max":1318,"o":"m 1124 867 l 546 -133 q 536 -167 536 -151 q 581 -201 536 -196 q 625 -224 625 -206 q 589 -257 625 -244 q 536 -267 560 -267 l 69 -267 q 31 -233 31 -267 q 42 -200 31 -218 l 696 933 q 742 981 711 961 q 800 1000 774 1000 l 1267 1000 q 1318 976 1318 1000 q 1281 943 1318 956 q 1229 933 1253 933 q 1170 914 1201 933 q 1124 867 1139 894 "},"|":{"ha":1146,"x_min":7,"x_max":1149,"o":"m 776 1000 l 1110 1000 q 1149 967 1149 1000 q 1139 933 1149 951 l 483 -200 q 437 -247 468 -228 q 379 -267 406 -267 l 46 -267 q 7 -233 7 -267 q 17 -200 7 -218 l 672 933 q 718 981 688 961 q 776 1000 749 1000 "},"}":{"ha":1146,"x_min":11,"x_max":1297,"o":"m 792 1000 l 1258 1000 q 1297 967 1297 1000 q 1286 933 1297 951 l 632 -200 q 585 -247 617 -228 q 528 -267 554 -267 l 61 -267 q 11 -243 11 -267 q 47 -210 11 -222 q 101 -200 75 -200 q 158 -181 126 -200 q 204 -133 189 -161 l 782 867 q 792 900 792 885 q 747 935 792 929 q 703 957 703 940 q 740 990 703 978 q 792 1000 768 1000 "},"~":{"ha":1146,"x_min":-10,"x_max":1269,"o":"m 897 668 l 1231 668 q 1269 635 1269 668 q 1260 601 1269 619 l 1182 468 q 1135 421 1167 440 q 1076 401 1104 401 l 610 401 l 610 401 q 552 382 583 401 q 506 335 521 363 l 467 268 q 420 221 451 240 q 361 201 389 201 l 28 201 q -10 235 -10 201 q 0 268 -10 250 l 76 401 q 124 449 93 429 q 182 468 154 468 l 649 468 l 649 468 q 707 488 676 468 q 754 535 738 507 l 793 601 q 839 649 808 629 q 897 668 869 668 "},"Ä":{"ha":1146,"x_min":-4,"x_max":1583,"o":"m 1211 1000 l 1544 1000 q 1583 967 1583 1000 q 1574 933 1583 951 l 1535 867 q 1488 819 1519 839 q 1429 800 1457 800 l 1096 800 q 1058 833 1058 800 q 1068 867 1058 849 l 1107 933 q 1153 981 1122 961 q 1211 1000 1185 1000 m 974 933 l 935 867 q 888 819 919 839 q 829 800 857 800 l 496 800 q 458 833 458 800 q 468 867 458 849 l 507 933 q 553 981 522 961 q 611 1000 585 1000 l 944 1000 q 983 967 983 1000 q 974 933 983 951 m 925 733 l 1392 733 q 1429 700 1429 733 q 1419 667 1429 685 l 1072 67 q 1026 19 1057 39 q 968 0 996 0 l 35 0 q -4 33 -4 0 q 6 67 -4 49 l 160 333 q 207 381 176 361 q 265 400 238 400 l 732 400 l 732 400 q 790 419 760 400 q 838 467 821 439 l 914 600 q 925 633 925 618 q 886 667 925 667 l 886 667 q 828 647 858 667 q 781 600 797 628 l 742 533 q 696 486 726 506 q 638 467 665 467 l 304 467 q 265 500 265 467 q 275 533 265 515 l 353 667 q 399 714 368 694 q 458 733 431 733 l 925 733 m 644 133 l 722 267 q 732 300 732 285 q 693 333 732 333 l 693 333 q 635 314 667 333 q 589 267 604 294 l 511 133 q 501 100 501 115 q 539 67 501 67 l 539 67 q 598 86 567 67 q 644 133 629 106 "},"Å":{"ha":1146,"x_min":7,"x_max":1594,"o":"m 624 1000 l 1557 1000 q 1594 967 1594 1000 q 1585 933 1594 951 l 1546 867 q 1499 819 1531 839 q 1442 800 1468 800 l 508 800 q 469 833 469 800 q 479 867 469 849 l 518 933 q 565 981 533 961 q 624 1000 596 1000 m 1013 867 q 1065 876 1036 867 q 1101 910 1101 889 q 1051 933 1101 933 l 1051 933 q 999 924 1028 933 q 963 890 963 911 q 1013 867 963 867 l 1013 867 m 936 733 l 1403 733 q 1442 700 1442 733 q 1431 667 1442 685 l 1085 67 q 1038 19 1068 39 q 979 0 1007 0 l 46 0 q 7 33 7 0 q 18 67 7 49 l 172 333 q 218 381 188 361 q 276 400 249 400 l 743 400 l 743 400 q 802 419 771 400 q 849 467 833 439 l 925 600 q 936 633 936 618 q 897 667 936 667 l 897 667 q 839 647 869 667 q 792 600 808 628 l 754 533 q 707 486 738 506 q 649 467 676 467 l 315 467 q 276 500 276 467 q 288 533 276 515 l 364 667 q 411 714 381 694 q 469 733 442 733 l 936 733 m 656 133 l 733 267 q 743 300 743 285 q 706 333 743 333 l 706 333 q 647 314 678 333 q 600 267 615 294 l 522 133 q 513 100 513 115 q 551 67 513 67 l 551 67 q 609 86 578 67 q 656 133 640 106 "},"Ç":{"ha":1146,"x_min":-4,"x_max":1429,"o":"m 1238 467 l 904 467 q 865 500 865 467 q 876 533 865 515 l 914 600 q 925 633 925 618 q 886 667 925 667 q 828 647 858 667 q 781 600 797 628 l 511 133 q 501 100 501 115 q 540 67 501 67 q 598 86 567 67 q 644 133 629 106 l 760 333 q 807 381 776 361 q 865 400 838 400 l 1199 400 q 1238 367 1238 400 q 1226 333 1238 351 l 1074 67 q 1026 19 1057 39 q 968 0 996 0 l 635 0 q 576 -19 607 0 q 529 -67 546 -39 l 375 -333 q 332 -369 354 -369 q 311 -357 319 -369 l 126 -43 q 35 0 101 0 q -4 33 -4 0 q 7 67 -4 49 l 353 667 q 399 714 368 694 q 458 733 431 733 l 1392 733 q 1429 700 1429 733 q 1419 667 1429 685 l 1343 533 q 1296 486 1326 506 q 1238 467 1265 467 "},"É":{"ha":1146,"x_min":4,"x_max":1438,"o":"m 701 333 q 644 314 675 333 q 597 267 613 294 l 519 133 q 510 100 510 115 q 549 67 510 67 q 606 86 575 67 q 653 133 638 106 l 692 200 q 738 247 707 228 q 797 267 769 267 l 1131 267 q 1168 233 1168 267 q 1158 200 1168 218 l 1082 67 q 1035 19 1065 39 q 976 0 1004 0 l 43 0 q 4 33 4 0 q 15 67 4 49 l 361 667 q 408 714 376 694 q 467 733 439 733 l 800 733 q 858 753 828 733 q 904 800 889 772 l 1058 1067 q 1103 1103 1079 1103 q 1122 1090 1115 1103 l 1307 776 q 1400 733 1333 733 q 1438 700 1438 733 q 1428 667 1438 685 l 1274 400 q 1227 353 1258 372 q 1168 333 1196 333 l 701 333 m 789 600 l 713 467 q 703 433 703 449 q 740 400 703 400 q 799 419 768 400 q 846 467 829 439 l 922 600 q 933 633 933 618 q 894 667 933 667 q 836 647 867 667 q 789 600 806 628 "},"Ñ":{"ha":1146,"x_min":13,"x_max":1676,"o":"m 940 733 l 1407 733 q 1446 700 1446 733 q 1435 667 1446 685 l 1089 67 q 1042 19 1074 39 q 983 0 1011 0 l 650 0 q 613 33 613 0 q 622 67 613 49 l 931 600 q 940 633 940 618 q 901 667 940 667 l 901 667 q 844 647 875 667 q 797 600 813 628 l 489 67 q 442 19 474 39 q 383 0 411 0 l 50 0 q 13 33 13 0 q 22 67 13 49 l 368 667 q 415 714 385 694 q 474 733 446 733 l 940 733 m 1304 1133 l 1638 1133 q 1676 1100 1676 1133 q 1667 1067 1676 1085 l 1628 1000 q 1581 953 1613 972 q 1522 933 1550 933 l 1056 933 l 1056 933 q 997 914 1028 933 q 951 867 967 894 l 951 867 q 904 819 935 839 q 846 800 874 800 l 513 800 q 474 833 474 800 q 485 867 474 849 l 522 933 q 569 981 539 961 q 628 1000 600 1000 l 1094 1000 l 1094 1000 q 1153 1019 1122 1000 q 1200 1067 1183 1039 l 1200 1067 q 1247 1114 1215 1094 q 1304 1133 1278 1133 "},"Ö":{"ha":1146,"x_min":-10,"x_max":1578,"o":"m 918 733 l 1385 733 q 1424 700 1424 733 q 1413 667 1424 685 l 1067 67 q 1020 19 1051 39 q 961 0 989 0 l 28 0 q -10 33 -10 0 q 0 67 -10 49 l 346 667 q 393 714 363 694 q 451 733 424 733 l 918 733 m 639 133 l 908 600 q 918 633 918 618 q 879 667 918 667 l 879 667 q 822 647 853 667 q 775 600 790 628 l 506 133 q 494 100 494 115 q 533 67 494 67 l 533 67 q 592 86 561 67 q 639 133 622 106 m 1206 1000 l 1539 1000 q 1578 967 1578 1000 q 1567 933 1578 951 l 1529 867 q 1482 819 1513 839 q 1424 800 1451 800 l 1090 800 q 1051 833 1051 800 q 1063 867 1051 849 l 1100 933 q 1147 981 1117 961 q 1206 1000 1178 1000 m 967 933 l 929 867 q 882 819 913 839 q 824 800 851 800 l 490 800 q 451 833 451 800 q 463 867 451 849 l 500 933 q 547 981 517 961 q 606 1000 578 1000 l 939 1000 q 978 967 978 1000 q 967 933 978 951 "},"Ü":{"ha":1146,"x_min":-10,"x_max":1578,"o":"m 918 733 l 1385 733 q 1424 700 1424 733 q 1413 667 1424 685 l 1067 67 q 1020 19 1051 39 q 961 0 989 0 l 28 0 q -10 33 -10 0 q 0 67 -10 49 l 346 667 q 393 714 363 694 q 451 733 424 733 l 918 733 m 639 133 l 908 600 q 918 633 918 618 q 879 667 918 667 l 879 667 q 822 647 853 667 q 775 600 790 628 l 506 133 q 494 100 494 115 q 533 67 494 67 l 533 67 q 592 86 561 67 q 639 133 622 106 m 1206 1000 l 1539 1000 q 1578 967 1578 1000 q 1567 933 1578 951 l 1529 867 q 1482 819 1513 839 q 1424 800 1451 800 l 1090 800 q 1051 833 1051 800 q 1063 867 1051 849 l 1100 933 q 1147 981 1117 961 q 1206 1000 1178 1000 m 967 933 l 929 867 q 882 819 913 839 q 824 800 851 800 l 490 800 q 451 833 451 800 q 463 867 451 849 l 500 933 q 547 981 517 961 q 606 1000 578 1000 l 939 1000 q 978 967 978 1000 q 967 933 978 951 "},"á":{"ha":1146,"x_min":-10,"x_max":1425,"o":"m 1386 733 q 1425 700 1425 733 q 1414 667 1425 685 l 1068 67 q 1021 19 1051 39 q 963 0 990 0 l 29 0 q -10 33 -10 0 q 1 67 -10 49 l 156 333 q 202 381 171 361 q 260 400 233 400 l 726 400 l 726 400 q 785 419 754 400 q 832 467 817 439 l 908 600 q 919 633 919 618 q 881 667 919 667 l 881 667 q 822 647 853 667 q 775 600 792 628 l 738 533 q 690 486 721 506 q 632 467 660 467 l 299 467 q 260 500 260 467 q 271 533 260 515 l 347 667 q 394 714 364 694 q 453 733 425 733 l 786 733 q 844 753 814 733 q 892 800 875 772 l 1044 1067 q 1089 1103 1065 1103 q 1110 1090 1101 1103 l 1294 776 q 1386 733 1319 733 m 640 133 l 717 267 q 726 300 726 285 q 689 333 726 333 l 689 333 q 630 314 661 333 q 583 267 599 294 l 506 133 q 496 100 496 115 q 535 67 496 67 l 535 67 q 593 86 563 67 q 640 133 624 106 "},"à":{"ha":1146,"x_min":-10,"x_max":1424,"o":"m 1385 733 q 1424 700 1424 733 q 1413 667 1424 685 l 1067 67 q 1020 19 1051 39 q 961 0 989 0 l 28 0 q -10 33 -10 0 q 0 67 -10 49 l 154 333 q 201 381 169 361 q 260 400 232 400 l 726 400 l 726 400 q 784 419 753 400 q 831 467 815 439 l 908 600 q 918 633 918 618 q 879 667 918 667 l 879 667 q 822 647 853 667 q 775 600 790 628 l 736 533 q 690 486 721 506 q 631 467 658 467 l 297 467 q 260 500 260 467 q 269 533 260 515 l 346 667 q 393 714 363 694 q 451 733 424 733 l 785 733 q 843 753 813 733 q 890 800 874 772 l 1044 1067 q 1088 1103 1065 1103 q 1108 1090 1100 1103 l 1293 776 q 1385 733 1318 733 m 639 133 l 715 267 q 726 300 726 285 q 688 333 726 333 l 688 333 q 629 314 660 333 q 582 267 599 294 l 506 133 q 494 100 494 115 q 533 67 494 67 l 533 67 q 592 86 561 67 q 639 133 622 106 "},"â":{"ha":1146,"x_min":-10,"x_max":1654,"o":"m 1282 1133 l 1615 1133 q 1654 1100 1654 1133 q 1644 1067 1654 1085 l 1490 800 q 1446 764 1469 764 q 1426 776 1433 764 l 1242 1090 q 1236 1106 1236 1099 q 1282 1133 1236 1133 m 815 1133 l 1149 1133 q 1188 1100 1188 1133 q 1178 1067 1188 1085 l 1024 800 q 979 764 1003 764 q 960 776 967 764 l 775 1090 q 769 1106 769 1099 q 815 1133 769 1133 m 918 733 l 1385 733 q 1424 700 1424 733 q 1413 667 1424 685 l 1067 67 q 1020 19 1051 39 q 961 0 989 0 l 28 0 q -10 33 -10 0 q 0 67 -10 49 l 154 333 q 201 381 169 361 q 260 400 232 400 l 726 400 l 726 400 q 784 419 753 400 q 831 467 815 439 l 908 600 q 918 633 918 618 q 879 667 918 667 l 879 667 q 822 647 853 667 q 775 600 790 628 l 736 533 q 690 486 721 506 q 631 467 658 467 l 297 467 q 260 500 260 467 q 269 533 260 515 l 346 667 q 393 714 363 694 q 451 733 424 733 l 918 733 m 639 133 l 715 267 q 726 300 726 285 q 688 333 726 333 l 688 333 q 629 314 660 333 q 582 267 599 294 l 506 133 q 494 100 494 115 q 533 67 494 67 l 533 67 q 592 86 561 67 q 639 133 622 106 "},"ä":{"ha":1104,"x_min":-7,"x_max":1581,"o":"m 1208 1000 l 1542 1000 q 1581 967 1581 1000 q 1571 933 1581 951 l 1532 867 q 1485 819 1517 839 q 1426 800 1454 800 l 1093 800 q 1056 833 1056 800 q 1065 867 1056 849 l 1104 933 q 1151 981 1119 961 q 1208 1000 1182 1000 m 971 933 l 932 867 q 885 819 917 839 q 826 800 854 800 l 493 800 q 456 833 456 800 q 465 867 456 849 l 504 933 q 551 981 519 961 q 608 1000 582 1000 l 942 1000 q 981 967 981 1000 q 971 933 981 951 m 922 733 l 1389 733 q 1426 700 1426 733 q 1417 667 1426 685 l 1069 67 q 1023 19 1054 39 q 965 0 992 0 l 32 0 q -7 33 -7 0 q 3 67 -7 49 l 157 333 q 204 381 174 361 q 263 400 235 400 l 729 400 l 729 400 q 788 419 757 400 q 835 467 818 439 l 911 600 q 921 633 921 618 q 883 667 921 667 l 883 667 q 825 647 856 667 q 778 600 794 628 l 739 533 q 692 486 724 506 q 635 467 661 467 l 301 467 q 263 500 263 467 q 272 533 263 515 l 350 667 q 397 714 365 694 q 456 733 428 733 l 922 733 m 642 133 l 719 267 q 729 300 729 285 q 690 333 729 333 l 690 333 q 632 314 663 333 q 586 267 601 294 l 508 133 q 499 100 499 115 q 536 67 499 67 l 536 67 q 595 86 564 67 q 642 133 626 106 "},"ã":{"ha":1146,"x_min":-10,"x_max":1654,"o":"m 1282 1133 l 1615 1133 q 1654 1100 1654 1133 q 1644 1067 1654 1085 l 1606 1000 q 1559 953 1590 972 q 1500 933 1528 933 l 1033 933 l 1033 933 q 975 914 1006 933 q 929 867 944 894 l 929 867 q 882 819 913 839 q 824 800 851 800 l 490 800 q 451 833 451 800 q 463 867 451 849 l 500 933 q 547 981 517 961 q 606 1000 578 1000 l 1072 1000 l 1072 1000 q 1131 1019 1100 1000 q 1178 1067 1161 1039 l 1178 1067 q 1224 1114 1193 1094 q 1282 1133 1256 1133 m 918 733 l 1385 733 q 1424 700 1424 733 q 1413 667 1424 685 l 1067 67 q 1020 19 1051 39 q 961 0 989 0 l 28 0 q -10 33 -10 0 q 0 67 -10 49 l 154 333 q 201 381 169 361 q 260 400 232 400 l 726 400 l 726 400 q 784 419 753 400 q 831 467 815 439 l 908 600 q 918 633 918 618 q 879 667 918 667 l 879 667 q 822 647 853 667 q 775 600 790 628 l 736 533 q 690 486 721 506 q 631 467 658 467 l 297 467 q 260 500 260 467 q 269 533 260 515 l 346 667 q 393 714 363 694 q 451 733 424 733 l 918 733 m 639 133 l 715 267 q 726 300 726 285 q 688 333 726 333 l 688 333 q 629 314 660 333 q 582 267 599 294 l 506 133 q 494 100 494 115 q 533 67 494 67 l 533 67 q 592 86 561 67 q 639 133 622 106 "},"å":{"ha":1118,"x_min":-7,"x_max":1581,"o":"m 608 1000 l 1542 1000 q 1581 967 1581 1000 q 1571 933 1581 951 l 1532 867 q 1485 819 1517 839 q 1426 800 1454 800 l 493 800 q 456 833 456 800 q 465 867 456 849 l 504 933 q 551 981 519 961 q 608 1000 582 1000 m 999 867 q 1051 876 1022 867 q 1088 910 1088 889 q 1038 933 1088 933 l 1038 933 q 985 924 1013 933 q 949 890 949 911 q 999 867 949 867 l 999 867 m 922 733 l 1389 733 q 1426 700 1426 733 q 1417 667 1426 685 l 1069 67 q 1023 19 1054 39 q 965 0 992 0 l 32 0 q -7 33 -7 0 q 3 67 -7 49 l 157 333 q 204 381 174 361 q 263 400 235 400 l 729 400 l 729 400 q 788 419 757 400 q 835 467 818 439 l 911 600 q 921 633 921 618 q 883 667 921 667 l 883 667 q 825 647 856 667 q 778 600 794 628 l 739 533 q 692 486 724 506 q 635 467 661 467 l 301 467 q 263 500 263 467 q 272 533 263 515 l 350 667 q 397 714 365 694 q 456 733 428 733 l 922 733 m 642 133 l 719 267 q 729 300 729 285 q 690 333 729 333 l 690 333 q 632 314 663 333 q 586 267 601 294 l 508 133 q 499 100 499 115 q 536 67 499 67 l 536 67 q 595 86 564 67 q 642 133 626 106 "},"ç":{"ha":1146,"x_min":-10,"x_max":1424,"o":"m 1231 467 l 897 467 q 860 500 860 467 q 869 533 860 515 l 908 600 q 918 633 918 618 q 879 667 918 667 q 822 647 853 667 q 775 600 790 628 l 506 133 q 494 100 494 115 q 533 67 494 67 q 592 86 561 67 q 639 133 622 106 l 754 333 q 801 381 769 361 q 860 400 832 400 l 1193 400 q 1231 367 1231 400 q 1221 333 1231 351 l 1067 67 q 1020 19 1051 39 q 961 0 989 0 l 628 0 q 569 -19 600 0 q 524 -67 539 -39 l 369 -333 q 325 -369 349 -369 q 306 -357 313 -369 l 121 -43 q 28 0 94 0 q -10 33 -10 0 q 0 67 -10 49 l 346 667 q 393 714 363 694 q 451 733 424 733 l 1385 733 q 1424 700 1424 733 q 1413 667 1424 685 l 1336 533 q 1290 486 1321 506 q 1231 467 1258 467 "},"é":{"ha":1146,"x_min":-10,"x_max":1424,"o":"m 688 333 q 629 314 660 333 q 582 267 599 294 l 506 133 q 494 100 494 115 q 533 67 494 67 l 533 67 q 592 86 561 67 q 639 133 622 106 l 676 200 q 724 247 693 228 q 782 267 754 267 l 1115 267 q 1154 233 1154 267 q 1143 200 1154 218 l 1067 67 q 1020 19 1051 39 q 961 0 989 0 l 28 0 q -10 33 -10 0 q 0 67 -10 49 l 346 667 q 393 714 363 694 q 451 733 424 733 l 785 733 q 843 753 813 733 q 890 800 874 772 l 1044 1067 q 1088 1103 1065 1103 q 1108 1090 1100 1103 l 1293 776 q 1385 733 1318 733 l 1385 733 q 1424 700 1424 733 q 1413 667 1424 685 l 1260 400 q 1213 353 1243 372 q 1154 333 1182 333 l 688 333 m 775 600 l 697 467 q 688 433 688 449 q 726 400 688 400 l 726 400 q 784 419 753 400 q 831 467 815 439 l 908 600 q 918 633 918 618 q 879 667 918 667 l 879 667 q 822 647 853 667 q 775 600 790 628 "},"è":{"ha":1146,"x_min":-10,"x_max":1424,"o":"m 688 333 q 629 314 660 333 q 582 267 599 294 l 506 133 q 494 100 494 115 q 533 67 494 67 q 592 86 561 67 q 639 133 622 106 l 676 200 q 724 247 693 228 q 782 267 754 267 l 1115 267 q 1154 233 1154 267 q 1143 200 1154 218 l 1067 67 q 1020 19 1051 39 q 961 0 989 0 l 28 0 q -10 33 -10 0 q 0 67 -10 49 l 346 667 q 393 714 363 694 q 451 733 424 733 l 785 733 q 843 753 813 733 q 890 800 874 772 l 1044 1067 q 1088 1103 1065 1103 q 1108 1090 1100 1103 l 1293 776 q 1385 733 1318 733 q 1424 700 1424 733 q 1413 667 1424 685 l 1260 400 q 1213 353 1243 372 q 1154 333 1182 333 l 688 333 m 775 600 l 697 467 q 688 433 688 449 q 726 400 688 400 q 784 419 753 400 q 831 467 815 439 l 908 600 q 918 633 918 618 q 879 667 918 667 q 822 647 853 667 q 775 600 790 628 "},"ê":{"ha":1146,"x_min":-10,"x_max":1433,"o":"m 688 333 l 688 333 q 629 314 660 333 q 582 267 599 294 l 506 133 q 494 100 494 115 q 533 67 494 67 l 533 67 q 592 86 561 67 q 639 133 622 106 l 676 200 q 724 247 693 228 q 782 267 754 267 l 1115 267 q 1154 233 1154 267 q 1143 200 1154 218 l 1067 67 q 1020 19 1051 39 q 961 0 989 0 l 28 0 q -10 33 -10 0 q 0 67 -10 49 l 346 667 q 393 714 363 694 q 451 733 424 733 l 451 733 q 510 753 479 733 q 557 800 540 772 l 711 1067 q 754 1103 732 1103 q 775 1090 767 1103 l 960 776 q 979 764 967 764 q 1024 800 1003 764 l 1178 1067 q 1221 1103 1199 1103 q 1242 1090 1233 1103 l 1426 776 q 1433 742 1433 764 q 1413 667 1433 703 l 1260 400 q 1213 353 1243 372 q 1154 333 1182 333 l 688 333 m 831 467 l 908 600 q 918 633 918 618 q 879 667 918 667 l 879 667 q 822 647 853 667 q 775 600 790 628 l 697 467 q 688 433 688 449 q 726 400 688 400 l 726 400 q 784 419 753 400 q 831 467 815 439 "},"ë":{"ha":1146,"x_min":-10,"x_max":1578,"o":"m 918 733 l 1385 733 q 1424 700 1424 733 q 1413 667 1424 685 l 1260 400 q 1213 353 1243 372 q 1154 333 1182 333 l 688 333 l 688 333 q 629 314 660 333 q 582 267 599 294 l 506 133 q 494 100 494 115 q 533 67 494 67 l 533 67 q 592 86 561 67 q 639 133 622 106 l 676 200 q 724 247 693 228 q 782 267 754 267 l 1115 267 q 1154 233 1154 267 q 1143 200 1154 218 l 1067 67 q 1020 19 1051 39 q 961 0 989 0 l 28 0 q -10 33 -10 0 q 0 67 -10 49 l 346 667 q 393 714 363 694 q 451 733 424 733 l 918 733 m 831 467 l 908 600 q 918 633 918 618 q 879 667 918 667 l 879 667 q 822 647 853 667 q 775 600 790 628 l 697 467 q 688 433 688 449 q 726 400 688 400 l 726 400 q 784 419 753 400 q 831 467 815 439 m 1206 1000 l 1539 1000 q 1578 967 1578 1000 q 1567 933 1578 951 l 1529 867 q 1482 819 1513 839 q 1424 800 1451 800 l 1090 800 q 1051 833 1051 800 q 1063 867 1051 849 l 1100 933 q 1147 981 1117 961 q 1206 1000 1178 1000 m 967 933 l 929 867 q 882 819 913 839 q 824 800 851 800 l 490 800 q 451 833 451 800 q 463 867 451 849 l 500 933 q 547 981 517 961 q 606 1000 578 1000 l 939 1000 q 978 967 978 1000 q 967 933 978 951 "},"í":{"ha":1146,"x_min":-10,"x_max":869,"o":"m 681 1157 l 864 843 q 869 828 869 836 q 824 800 869 800 l 490 800 q 451 833 451 800 q 463 867 451 849 l 615 1133 q 660 1169 636 1169 q 681 1157 672 1169 m 0 67 l 346 667 q 393 714 363 694 q 451 733 424 733 l 785 733 q 824 700 824 733 q 813 667 824 685 l 467 67 q 420 19 451 39 q 361 0 389 0 l 28 0 q -10 33 -10 0 q 0 67 -10 49 "},"ì":{"ha":1146,"x_min":-10,"x_max":869,"o":"m 681 1157 l 864 843 q 869 828 869 836 q 824 800 869 800 l 490 800 q 451 833 451 800 q 463 867 451 849 l 615 1133 q 660 1169 636 1169 q 681 1157 672 1169 m 0 67 l 346 667 q 393 714 363 694 q 451 733 424 733 l 785 733 q 824 700 824 733 q 813 667 824 685 l 467 67 q 420 19 451 39 q 361 0 389 0 l 28 0 q -10 33 -10 0 q 0 67 -10 49 "},"î":{"ha":1146,"x_min":-10,"x_max":1151,"o":"m 781 1303 l 1114 1303 q 1151 1269 1151 1303 q 1142 1236 1151 1254 l 988 969 q 944 933 967 933 q 924 946 931 933 l 739 1260 q 735 1275 735 1267 q 781 1303 735 1303 m 463 867 l 615 1133 q 660 1169 636 1169 q 681 1157 672 1169 l 864 843 q 869 828 869 836 q 824 800 869 800 l 490 800 q 451 833 451 800 q 463 867 451 849 m 0 67 l 346 667 q 393 714 363 694 q 451 733 424 733 l 785 733 q 824 700 824 733 q 813 667 824 685 l 467 67 q 420 19 451 39 q 361 0 389 0 l 28 0 q -10 33 -10 0 q 0 67 -10 49 "},"ï":{"ha":1146,"x_min":-10,"x_max":1151,"o":"m 781 1303 l 1114 1303 q 1151 1269 1151 1303 q 1142 1236 1151 1254 l 988 969 q 944 933 967 933 q 924 946 931 933 l 739 1260 q 735 1275 735 1267 q 781 1303 735 1303 m 463 867 l 615 1133 q 660 1169 636 1169 q 681 1157 672 1169 l 864 843 q 869 828 869 836 q 824 800 869 800 l 490 800 q 451 833 451 800 q 463 867 451 849 m 0 67 l 346 667 q 393 714 363 694 q 451 733 424 733 l 785 733 q 824 700 824 733 q 813 667 824 685 l 467 67 q 420 19 451 39 q 361 0 389 0 l 28 0 q -10 33 -10 0 q 0 67 -10 49 "},"ñ":{"ha":1146,"x_min":-10,"x_max":1654,"o":"m 918 733 l 1385 733 q 1424 700 1424 733 q 1413 667 1424 685 l 1067 67 q 1020 19 1051 39 q 961 0 989 0 l 628 0 q 590 33 590 0 q 600 67 590 49 l 908 600 q 918 633 918 618 q 879 667 918 667 l 879 667 q 822 647 853 667 q 775 600 790 628 l 467 67 q 420 19 451 39 q 361 0 389 0 l 28 0 q -10 33 -10 0 q 0 67 -10 49 l 346 667 q 393 714 363 694 q 451 733 424 733 l 918 733 m 1282 1133 l 1615 1133 q 1654 1100 1654 1133 q 1644 1067 1654 1085 l 1606 1000 q 1559 953 1590 972 q 1500 933 1528 933 l 1033 933 l 1033 933 q 975 914 1006 933 q 929 867 944 894 l 929 867 q 882 819 913 839 q 824 800 851 800 l 490 800 q 451 833 451 800 q 463 867 451 849 l 500 933 q 547 981 517 961 q 606 1000 578 1000 l 1072 1000 l 1072 1000 q 1131 1019 1100 1000 q 1178 1067 1161 1039 l 1178 1067 q 1224 1114 1193 1094 q 1282 1133 1256 1133 "},"ó":{"ha":1146,"x_min":-10,"x_max":1424,"o":"m 1385 733 q 1424 700 1424 733 q 1413 667 1424 685 l 1067 67 q 1020 19 1051 39 q 961 0 989 0 l 28 0 q -10 33 -10 0 q 0 67 -10 49 l 346 667 q 393 714 363 694 q 451 733 424 733 l 785 733 q 843 753 813 733 q 890 800 874 772 l 1044 1067 q 1088 1103 1065 1103 q 1108 1090 1100 1103 l 1293 776 q 1385 733 1318 733 m 639 133 l 908 600 q 918 633 918 618 q 879 667 918 667 l 879 667 q 822 647 853 667 q 775 600 790 628 l 506 133 q 494 100 494 115 q 533 67 494 67 l 533 67 q 592 86 561 67 q 639 133 622 106 "},"ò":{"ha":1146,"x_min":-10,"x_max":1424,"o":"m 1385 733 q 1424 700 1424 733 q 1413 667 1424 685 l 1067 67 q 1020 19 1051 39 q 961 0 989 0 l 28 0 q -10 33 -10 0 q 0 67 -10 49 l 346 667 q 393 714 363 694 q 451 733 424 733 l 785 733 q 843 753 813 733 q 890 800 874 772 l 1044 1067 q 1088 1103 1065 1103 q 1108 1090 1100 1103 l 1293 776 q 1385 733 1318 733 m 639 133 l 908 600 q 918 633 918 618 q 879 667 918 667 l 879 667 q 822 647 853 667 q 775 600 790 628 l 506 133 q 494 100 494 115 q 533 67 494 67 l 533 67 q 592 86 561 67 q 639 133 622 106 "},"ô":{"ha":1146,"x_min":4,"x_max":1449,"o":"m 1256 1090 l 1440 776 q 1449 742 1449 764 q 1428 667 1449 703 l 1081 67 q 1034 19 1065 39 q 976 0 1003 0 l 43 0 q 4 33 4 0 q 14 67 4 49 l 361 667 q 466 733 389 717 q 571 800 543 750 l 725 1067 q 769 1103 746 1103 q 789 1090 782 1103 l 974 776 q 993 764 981 764 q 1038 800 1017 764 l 1192 1067 q 1236 1103 1213 1103 q 1256 1090 1249 1103 m 653 133 l 922 600 q 932 633 932 618 q 894 667 932 667 q 835 647 867 667 q 789 600 804 628 l 519 133 q 510 100 510 115 q 547 67 510 67 q 606 86 575 67 q 653 133 638 106 "},"ö":{"ha":1146,"x_min":-10,"x_max":1578,"o":"m 918 733 l 1385 733 q 1424 700 1424 733 q 1413 667 1424 685 l 1067 67 q 1020 19 1051 39 q 961 0 989 0 l 28 0 q -10 33 -10 0 q 0 67 -10 49 l 346 667 q 393 714 363 694 q 451 733 424 733 l 918 733 m 639 133 l 908 600 q 918 633 918 618 q 879 667 918 667 l 879 667 q 822 647 853 667 q 775 600 790 628 l 506 133 q 494 100 494 115 q 533 67 494 67 l 533 67 q 592 86 561 67 q 639 133 622 106 m 1206 1000 l 1539 1000 q 1578 967 1578 1000 q 1567 933 1578 951 l 1529 867 q 1482 819 1513 839 q 1424 800 1451 800 l 1090 800 q 1051 833 1051 800 q 1063 867 1051 849 l 1100 933 q 1147 981 1117 961 q 1206 1000 1178 1000 m 967 933 l 929 867 q 882 819 913 839 q 824 800 851 800 l 490 800 q 451 833 451 800 q 463 867 451 849 l 500 933 q 547 981 517 961 q 606 1000 578 1000 l 939 1000 q 978 967 978 1000 q 967 933 978 951 "},"õ":{"ha":1146,"x_min":-10,"x_max":1654,"o":"m 918 733 l 1385 733 q 1424 700 1424 733 q 1413 667 1424 685 l 1067 67 q 1020 19 1051 39 q 961 0 989 0 l 28 0 q -10 33 -10 0 q 0 67 -10 49 l 346 667 q 393 714 363 694 q 451 733 424 733 l 918 733 m 639 133 l 908 600 q 918 633 918 618 q 879 667 918 667 l 879 667 q 822 647 853 667 q 775 600 790 628 l 506 133 q 494 100 494 115 q 533 67 494 67 l 533 67 q 592 86 561 67 q 639 133 622 106 m 1282 1133 l 1615 1133 q 1654 1100 1654 1133 q 1644 1067 1654 1085 l 1606 1000 q 1559 953 1590 972 q 1500 933 1528 933 l 1033 933 l 1033 933 q 975 914 1006 933 q 929 867 944 894 l 929 867 q 882 819 913 839 q 824 800 851 800 l 490 800 q 451 833 451 800 q 463 867 451 849 l 500 933 q 547 981 517 961 q 606 1000 578 1000 l 1072 1000 l 1072 1000 q 1131 1019 1100 1000 q 1178 1067 1161 1039 l 1178 1067 q 1224 1114 1193 1094 q 1282 1133 1256 1133 "},"ú":{"ha":1146,"x_min":-10,"x_max":1424,"o":"m 1051 733 l 1385 733 q 1424 700 1424 733 q 1413 667 1424 685 l 1067 67 q 1020 19 1051 39 q 961 0 989 0 l 28 0 q -10 33 -10 0 q 0 67 -10 49 l 346 667 q 393 714 363 694 q 451 733 424 733 l 785 733 q 824 700 824 733 q 813 667 824 685 l 506 133 q 494 100 494 115 q 533 67 494 67 l 533 67 q 592 86 561 67 q 639 133 622 106 l 946 667 q 993 714 963 694 q 1051 733 1024 733 m 1147 1157 l 1331 843 q 1336 828 1336 836 q 1290 800 1336 800 l 957 800 q 918 833 918 800 q 929 867 918 849 l 1082 1133 q 1126 1169 1103 1169 q 1147 1157 1139 1169 "},"ù":{"ha":1146,"x_min":-10,"x_max":1424,"o":"m 1051 733 l 1385 733 q 1424 700 1424 733 q 1413 667 1424 685 l 1067 67 q 1020 19 1051 39 q 961 0 989 0 l 28 0 q -10 33 -10 0 q 0 67 -10 49 l 346 667 q 393 714 363 694 q 451 733 424 733 l 785 733 q 824 700 824 733 q 813 667 824 685 l 506 133 q 494 100 494 115 q 533 67 494 67 l 533 67 q 592 86 561 67 q 639 133 622 106 l 946 667 q 993 714 963 694 q 1051 733 1024 733 m 1147 1157 l 1331 843 q 1336 828 1336 836 q 1290 800 1336 800 l 957 800 q 918 833 918 800 q 929 867 918 849 l 1082 1133 q 1126 1169 1103 1169 q 1147 1157 1139 1169 "},"û":{"ha":1146,"x_min":-10,"x_max":1469,"o":"m 639 133 l 946 667 q 993 714 963 694 q 1051 733 1024 733 l 1385 733 q 1424 700 1424 733 q 1413 667 1424 685 l 1067 67 q 1020 19 1051 39 q 961 0 989 0 l 28 0 q -10 33 -10 0 q 0 67 -10 49 l 346 667 q 393 714 363 694 q 451 733 424 733 l 785 733 q 824 700 824 733 q 813 667 824 685 l 506 133 q 494 100 494 115 q 533 67 494 67 q 592 86 561 67 q 639 133 622 106 m 1281 1157 l 1464 843 q 1469 828 1469 836 q 1424 800 1469 800 l 1090 800 q 1051 833 1051 800 q 1063 867 1051 849 l 1215 1133 q 1260 1169 1236 1169 q 1281 1157 1272 1169 m 814 1157 l 997 843 q 1003 828 1003 836 q 957 800 1003 800 l 624 800 q 585 833 585 800 q 596 867 585 849 l 749 1133 q 793 1169 769 1169 q 814 1157 806 1169 "},"ü":{"ha":1146,"x_min":-10,"x_max":1578,"o":"m 639 133 l 946 667 q 993 714 963 694 q 1051 733 1024 733 l 1385 733 q 1424 700 1424 733 q 1413 667 1424 685 l 1067 67 q 1020 19 1051 39 q 961 0 989 0 l 28 0 q -10 33 -10 0 q 0 67 -10 49 l 346 667 q 393 714 363 694 q 451 733 424 733 l 785 733 q 824 700 824 733 q 813 667 824 685 l 506 133 q 494 100 494 115 q 533 67 494 67 l 533 67 q 592 86 561 67 q 639 133 622 106 m 1206 1000 l 1539 1000 q 1578 967 1578 1000 q 1567 933 1578 951 l 1529 867 q 1482 819 1513 839 q 1424 800 1451 800 l 1090 800 q 1051 833 1051 800 q 1063 867 1051 849 l 1100 933 q 1147 981 1117 961 q 1206 1000 1178 1000 m 967 933 l 929 867 q 882 819 913 839 q 824 800 851 800 l 490 800 q 451 833 451 800 q 463 867 451 849 l 500 933 q 547 981 517 961 q 606 1000 578 1000 l 939 1000 q 978 967 978 1000 q 967 933 978 951 "},"†":{"ha":1146,"x_min":-8,"x_max":1290,"o":"m 1281 667 l 1126 400 q 1079 353 1110 372 q 1021 333 1049 333 l 854 333 q 768 300 788 333 l 249 -600 q 204 -636 228 -636 q 185 -624 192 -636 l 0 -310 q -8 -275 -8 -297 q 13 -200 -8 -236 l 301 300 q 304 310 304 304 q 254 333 304 333 l 88 333 q 49 367 49 333 q 60 400 49 382 l 214 667 q 260 714 229 694 q 318 733 290 733 l 485 733 q 544 753 513 733 q 590 800 575 772 l 667 933 q 714 981 683 961 q 772 1000 744 1000 l 1106 1000 q 1144 967 1144 1000 q 1133 933 1144 951 l 1057 800 q 1047 767 1047 782 q 1085 733 1047 733 l 1251 733 q 1290 700 1290 733 q 1281 667 1290 685 "},"°":{"ha":1146,"x_min":-10,"x_max":1154,"o":"m 182 1000 l 1115 1000 q 1154 967 1154 1000 q 1143 933 1154 951 l 1067 800 q 1020 753 1051 772 q 961 733 989 733 l 28 733 q -10 767 -10 733 q 0 800 -10 782 l 76 933 q 124 981 93 961 q 182 1000 154 1000 m 639 867 l 639 867 q 649 900 649 885 q 610 933 649 933 l 610 933 q 552 914 583 933 q 506 867 521 894 l 506 867 q 494 833 494 849 q 533 800 494 800 l 533 800 q 592 819 561 800 q 639 867 622 839 "},"¢":{"ha":1146,"x_min":-10,"x_max":1424,"o":"m 1231 467 l 897 467 q 860 500 860 467 q 869 533 860 515 l 908 600 q 918 633 918 618 q 879 667 918 667 l 879 667 q 822 647 853 667 q 775 600 790 628 l 506 133 q 494 100 494 115 q 533 67 494 67 l 533 67 q 592 86 561 67 q 639 133 622 106 l 754 333 q 801 381 769 361 q 860 400 832 400 l 1193 400 q 1231 367 1231 400 q 1221 333 1231 351 l 1067 67 q 1020 19 1051 39 q 961 0 989 0 l 628 0 q 569 -19 600 0 q 524 -67 539 -39 l 369 -333 q 325 -369 349 -369 q 306 -357 313 -369 l 121 -43 q 28 0 94 0 l 28 0 q -10 33 -10 0 q 0 67 -10 49 l 346 667 q 438 733 375 717 q 529 800 500 750 l 682 1067 q 726 1103 703 1103 q 747 1090 739 1103 l 931 776 q 971 733 957 733 l 1385 733 q 1424 700 1424 733 q 1413 667 1424 685 l 1336 533 q 1290 486 1321 506 q 1231 467 1258 467 "},"£":{"ha":1104,"x_min":4,"x_max":1022,"o":"m 833 357 l 1018 43 q 1022 28 1022 36 q 976 0 1022 0 l 43 0 q 4 33 4 0 q 15 67 4 49 l 660 1183 q 704 1219 681 1219 q 724 1207 717 1219 l 908 893 q 917 856 917 879 q 900 792 917 821 l 519 133 q 510 100 510 115 q 549 67 510 67 l 549 67 q 606 86 575 67 q 653 133 638 106 l 769 333 q 813 369 790 369 q 833 357 825 369 "},"§":{"ha":1100,"x_min":-261,"x_max":1581,"o":"m 597 1000 l 1531 1000 q 1581 976 1581 1000 q 1521 867 1581 976 q 1415 800 1483 800 l 1082 800 q 1043 833 1043 800 q 1053 867 1043 846 q 1064 900 1064 888 q 1025 933 1064 933 l 1025 933 q 967 914 997 933 q 921 867 936 894 l 882 800 q 871 767 871 782 q 910 733 871 733 l 910 733 q 1003 690 976 733 l 1186 376 q 1193 300 1213 333 l 1135 200 l 1135 200 q 1089 153 1119 172 q 1031 133 1058 133 l 564 133 l 564 133 q 511 124 539 133 q 475 90 475 111 q 525 67 475 67 l 992 67 q 1031 33 1031 67 q 1019 0 1031 18 l 828 -333 q 781 -381 811 -361 q 722 -400 750 -400 l -211 -400 q -261 -376 -261 -400 q -258 -367 -261 -371 l -162 -200 q -115 -153 -146 -172 q -57 -133 -85 -133 l 276 -133 q 315 -167 315 -133 q 304 -200 315 -182 l 265 -267 q 256 -300 256 -285 q 294 -333 256 -333 l 294 -333 q 353 -314 322 -333 q 399 -267 383 -294 l 515 -67 q 525 -33 525 -49 q 486 0 525 0 l 486 0 q 394 43 419 0 l 210 357 q 201 392 201 369 q 222 467 201 431 l 222 467 q 269 514 239 494 q 328 533 300 533 l 794 533 l 794 533 q 853 553 822 533 q 900 600 883 572 l 900 600 q 910 633 910 618 q 871 667 910 667 l 738 667 l 404 667 q 367 700 367 667 q 376 733 367 715 l 492 933 q 539 981 508 961 q 597 1000 569 1000 m 785 400 l 785 400 q 794 433 794 418 q 756 467 794 467 l 756 467 q 697 447 728 467 q 651 400 667 428 l 554 233 q 551 224 551 229 q 601 200 551 200 l 601 200 q 688 233 668 200 l 785 400 "},"•":{"ha":1146,"x_min":-10,"x_max":631,"o":"m 361 200 l 28 200 q -10 233 -10 200 q 0 267 -10 249 l 154 533 q 201 581 169 561 q 260 600 232 600 l 593 600 q 631 567 631 600 q 621 533 631 551 l 467 267 q 420 219 451 239 q 361 200 389 200 "},"¶":{"ha":1146,"x_min":161,"x_max":1594,"o":"m 490 -874 l 306 -560 q 297 -525 297 -547 q 318 -450 297 -486 l 693 200 q 704 233 704 218 q 665 267 704 267 l 199 267 q 161 300 161 267 q 171 333 161 315 l 517 933 q 564 981 533 961 q 622 1000 594 1000 l 1556 1000 q 1594 967 1594 1000 q 1583 933 1594 951 l 554 -850 q 510 -886 533 -886 q 490 -874 497 -886 m 704 333 q 763 353 732 333 q 810 400 793 372 l 1079 867 q 1089 900 1089 885 q 1050 933 1089 933 l 1050 933 q 992 914 1024 933 q 946 867 961 894 l 676 400 q 665 367 665 382 q 704 333 665 333 "},"´":{"ha":500,"x_min":422,"x_max":839,"o":"m 793 733 l 460 733 q 422 767 422 733 q 432 800 422 782 l 586 1067 q 629 1103 607 1103 q 650 1090 643 1103 l 835 776 q 839 761 839 769 q 793 733 839 733 "},"¨":{"ha":1146,"x_min":-10,"x_max":1115,"o":"m 743 1000 l 1076 1000 q 1115 967 1115 1000 q 1106 933 1115 951 l 1067 867 q 1020 819 1051 839 q 961 800 989 800 l 628 800 q 590 833 590 800 q 600 867 590 849 l 639 933 q 685 981 654 961 q 743 1000 717 1000 m 0 867 l 39 933 q 85 981 54 961 q 143 1000 117 1000 l 476 1000 q 515 967 515 1000 q 506 933 515 951 l 467 867 q 420 819 451 839 q 361 800 389 800 l 28 800 q -10 833 -10 800 q 0 867 -10 849 "},"Æ":{"ha":1146,"x_min":-10,"x_max":2024,"o":"m 1288 333 q 1229 314 1260 333 q 1182 267 1199 294 l 1106 133 q 1094 100 1094 115 q 1133 67 1094 67 q 1192 86 1161 67 q 1239 133 1222 106 l 1276 200 q 1324 247 1293 228 q 1382 267 1354 267 l 1715 267 q 1754 233 1754 267 q 1743 200 1754 218 l 1667 67 q 1620 19 1651 39 q 1561 0 1589 0 l 28 0 q -10 33 -10 0 q 0 67 -10 49 l 154 333 q 201 381 169 361 q 260 400 232 400 l 726 400 l 726 400 q 784 419 753 400 q 831 467 815 439 l 908 600 q 918 633 918 618 q 879 667 918 667 l 879 667 q 822 647 853 667 q 775 600 790 628 l 736 533 q 690 486 721 506 q 631 467 658 467 l 297 467 q 260 500 260 467 q 269 533 260 515 l 346 667 q 393 714 363 694 q 451 733 424 733 l 1985 733 q 2024 700 2024 733 q 2013 667 2024 685 l 1860 400 q 1813 353 1843 372 q 1754 333 1782 333 l 1288 333 m 639 133 l 715 267 q 726 300 726 285 q 688 333 726 333 l 688 333 q 629 314 660 333 q 582 267 599 294 l 506 133 q 494 100 494 115 q 533 67 494 67 l 533 67 q 592 86 561 67 q 639 133 622 106 m 1375 600 l 1297 467 q 1288 433 1288 449 q 1326 400 1288 400 q 1384 419 1353 400 q 1431 467 1415 439 l 1508 600 q 1518 633 1518 618 q 1479 667 1518 667 q 1422 647 1453 667 q 1375 600 1390 628 "},"Ø":{"ha":1146,"x_min":0,"x_max":1433,"o":"m 461 733 l 1394 733 q 1433 700 1433 733 q 1424 667 1433 685 l 1076 67 q 1030 19 1061 39 q 972 0 999 0 l 39 0 q 0 33 0 0 q 10 67 0 49 l 357 667 q 403 714 372 694 q 461 733 435 733 m 649 133 l 725 267 q 736 300 736 285 q 697 333 736 333 l 697 333 q 639 314 669 333 q 592 267 608 294 l 515 133 q 506 100 506 115 q 543 67 506 67 l 543 67 q 602 86 571 67 q 649 133 633 106 m 842 467 l 918 600 q 928 633 928 618 q 890 667 928 667 l 890 667 q 831 647 863 667 q 785 600 800 628 l 708 467 q 697 433 697 449 q 736 400 697 400 l 736 400 q 794 419 764 400 q 842 467 825 439 "},"±":{"ha":1146,"x_min":-10,"x_max":1654,"o":"m 1449 733 l 1615 733 q 1654 700 1654 733 q 1644 667 1654 685 l 1490 400 q 1443 353 1474 372 q 1385 333 1413 333 l 1218 333 q 1160 314 1190 333 q 1113 267 1129 294 l 1017 100 q 931 67 997 67 l 597 67 q 547 90 547 67 q 550 100 547 96 l 646 267 q 657 300 657 285 q 618 333 657 333 l 451 333 q 413 367 413 333 q 424 400 413 382 l 578 667 q 624 714 593 694 q 682 733 656 733 l 849 733 q 908 753 876 733 q 954 800 939 772 l 1032 933 q 1078 981 1047 961 q 1136 1000 1108 1000 l 1469 1000 q 1508 967 1508 1000 q 1499 933 1508 951 l 1421 800 l 1421 800 q 1411 767 1411 782 q 1449 733 1411 733 m 260 0 l 1193 0 q 1231 -33 1231 0 q 1221 -67 1231 -49 l 1067 -333 q 1020 -381 1051 -361 q 961 -400 989 -400 l 28 -400 q -10 -367 -10 -400 q 0 -333 -10 -351 l 154 -67 q 201 -19 169 -39 q 260 0 232 0 "},"æ":{"ha":1728,"x_min":-7,"x_max":2026,"o":"m 1290 333 q 1232 314 1263 333 q 1186 267 1201 294 l 1108 133 q 1099 100 1099 115 q 1136 67 1099 67 q 1195 86 1164 67 q 1242 133 1226 106 l 1281 200 q 1327 247 1296 228 q 1386 267 1358 267 l 1719 267 q 1757 233 1757 267 q 1747 200 1757 218 l 1669 67 q 1623 19 1654 39 q 1565 0 1592 0 l 32 0 q -7 33 -7 0 q 3 67 -7 49 l 157 333 q 204 381 174 361 q 263 400 235 400 l 729 400 l 729 400 q 788 419 757 400 q 835 467 818 439 l 911 600 q 921 633 921 618 q 883 667 921 667 l 883 667 q 825 647 856 667 q 778 600 794 628 l 739 533 q 692 486 724 506 q 635 467 661 467 l 301 467 q 263 500 263 467 q 272 533 263 515 l 350 667 q 397 714 365 694 q 456 733 428 733 l 1989 733 q 2026 700 2026 733 q 2017 667 2026 685 l 1863 400 q 1816 353 1847 372 q 1757 333 1785 333 l 1290 333 m 642 133 l 719 267 q 729 300 729 285 q 690 333 729 333 l 690 333 q 632 314 663 333 q 586 267 601 294 l 508 133 q 499 100 499 115 q 536 67 499 67 l 536 67 q 595 86 564 67 q 642 133 626 106 m 1378 600 l 1301 467 q 1290 433 1290 449 q 1329 400 1290 400 q 1388 419 1357 400 q 1435 467 1418 439 l 1511 600 q 1521 633 1521 618 q 1483 667 1521 667 q 1425 647 1456 667 q 1378 600 1394 628 "},"ø":{"ha":1118,"x_min":-14,"x_max":1419,"o":"m 449 733 l 1382 733 q 1419 700 1419 733 q 1410 667 1419 685 l 1063 67 q 1016 19 1047 39 q 958 0 985 0 l 25 0 q -14 33 -14 0 q -4 67 -14 49 l 343 667 q 390 714 358 694 q 449 733 421 733 m 635 133 l 713 267 q 722 300 722 285 q 683 333 722 333 l 683 333 q 625 314 656 333 q 579 267 594 294 l 501 133 q 492 100 492 115 q 529 67 492 67 l 529 67 q 588 86 557 67 q 635 133 619 106 m 828 467 l 904 600 q 914 633 914 618 q 876 667 914 667 l 876 667 q 818 647 849 667 q 771 600 788 628 l 694 467 q 683 433 683 449 q 722 400 683 400 l 722 400 q 781 419 750 400 q 828 467 811 439 "},"¿":{"ha":1146,"x_min":-10,"x_max":1508,"o":"m 1315 867 l 982 867 q 944 900 944 867 q 954 933 944 915 l 1032 1067 q 1078 1114 1047 1094 q 1136 1133 1108 1133 l 1469 1133 q 1508 1100 1508 1133 q 1499 1067 1508 1085 l 1421 933 q 1374 886 1406 906 q 1315 867 1343 867 m 1221 67 l 1067 -200 q 1020 -247 1051 -228 q 961 -267 989 -267 l 28 -267 q -10 -233 -10 -267 q 0 -200 -10 -218 l 346 400 q 393 447 363 428 q 451 467 424 467 l 618 467 q 676 486 646 467 q 724 533 707 506 l 800 667 q 847 714 817 694 q 906 733 878 733 l 1239 733 q 1278 700 1278 733 q 1267 667 1278 685 l 1075 333 q 1028 286 1058 306 q 969 267 997 267 l 803 267 q 744 247 775 267 q 697 200 714 228 l 506 -133 q 494 -167 494 -151 q 533 -200 494 -200 l 533 -200 q 592 -181 561 -200 q 639 -133 622 -161 l 754 67 q 801 114 769 94 q 860 133 832 133 l 1193 133 q 1231 100 1231 133 q 1221 67 1231 85 "},"¡":{"ha":1146,"x_min":-10,"x_max":1208,"o":"m 1199 1067 l 1121 933 q 1074 886 1106 906 q 1015 867 1043 867 l 682 867 q 644 900 644 867 q 654 933 644 915 l 732 1067 q 778 1114 747 1094 q 836 1133 808 1133 l 1169 1133 q 1208 1100 1208 1133 q 1199 1067 1208 1085 m 967 667 l 467 -200 q 420 -247 451 -228 q 361 -267 389 -267 l 28 -267 q -10 -233 -10 -267 q 0 -200 -10 -218 l 500 667 q 547 714 517 694 q 606 733 578 733 l 939 733 q 978 700 978 733 q 967 667 978 685 "},"«":{"ha":1146,"x_min":-8,"x_max":1244,"o":"m 13 400 l 167 667 q 214 714 183 694 q 272 733 244 733 l 606 733 q 644 700 644 733 q 633 667 644 685 l 249 0 q 204 -36 228 -36 q 185 -24 192 -36 l 0 290 q -8 325 -8 303 q 13 400 -8 364 m 872 733 l 1206 733 q 1244 700 1244 733 q 1233 667 1244 685 l 849 0 q 804 -36 828 -36 q 785 -24 792 -36 l 600 290 q 592 325 592 303 q 613 400 592 364 l 767 667 q 814 714 783 694 q 872 733 844 733 "},"»":{"ha":1146,"x_min":-10,"x_max":1242,"o":"m 1221 333 l 1067 67 q 1020 19 1051 39 q 961 0 989 0 l 628 0 q 590 33 590 0 q 600 67 590 49 l 985 733 q 1029 769 1006 769 q 1049 757 1042 769 l 1233 443 q 1242 408 1242 431 q 1221 333 1242 369 m 449 757 l 633 443 q 642 408 642 431 q 621 333 642 369 l 467 67 q 420 19 451 39 q 361 0 389 0 l 28 0 q -10 33 -10 0 q 0 67 -10 49 l 385 733 q 429 769 406 769 q 449 757 442 769 "},"…":{"ha":1146,"x_min":-10,"x_max":1754,"o":"m 0 67 l 76 200 q 124 247 93 228 q 182 267 154 267 l 515 267 q 554 233 554 267 q 543 200 554 218 l 467 67 q 420 19 451 39 q 361 0 389 0 l 28 0 q -10 33 -10 0 q 0 67 -10 49 m 600 67 l 676 200 q 724 247 693 228 q 782 267 754 267 l 1115 267 q 1154 233 1154 267 q 1143 200 1154 218 l 1067 67 q 1020 19 1051 39 q 961 0 989 0 l 628 0 q 590 33 590 0 q 600 67 590 49 m 1382 267 l 1715 267 q 1754 233 1754 267 q 1743 200 1754 218 l 1667 67 q 1620 19 1651 39 q 1561 0 1589 0 l 1228 0 q 1190 33 1190 0 q 1200 67 1190 49 l 1276 200 q 1324 247 1293 228 q 1382 267 1354 267 "}," ":{"ha":674,"x_min":0,"x_max":0,"o":""},"Œ":{"ha":1146,"x_min":-10,"x_max":2024,"o":"m 1288 333 q 1229 314 1260 333 q 1182 267 1199 294 l 1106 133 q 1094 100 1094 115 q 1133 67 1094 67 q 1192 86 1161 67 q 1239 133 1222 106 l 1276 200 q 1324 247 1293 228 q 1382 267 1354 267 l 1715 267 q 1754 233 1754 267 q 1743 200 1754 218 l 1667 67 q 1620 19 1651 39 q 1561 0 1589 0 l 28 0 q -10 33 -10 0 q 0 67 -10 49 l 154 333 q 201 381 169 361 q 260 400 232 400 l 726 400 l 726 400 q 784 419 753 400 q 831 467 815 439 l 908 600 q 918 633 918 618 q 879 667 918 667 l 879 667 q 822 647 853 667 q 775 600 790 628 l 736 533 q 690 486 721 506 q 631 467 658 467 l 297 467 q 260 500 260 467 q 269 533 260 515 l 346 667 q 393 714 363 694 q 451 733 424 733 l 1985 733 q 2024 700 2024 733 q 2013 667 2024 685 l 1860 400 q 1813 353 1843 372 q 1754 333 1782 333 l 1288 333 m 639 133 l 715 267 q 726 300 726 285 q 688 333 726 333 l 688 333 q 629 314 660 333 q 582 267 599 294 l 506 133 q 494 100 494 115 q 533 67 494 67 l 533 67 q 592 86 561 67 q 639 133 622 106 m 1375 600 l 1297 467 q 1288 433 1288 449 q 1326 400 1288 400 q 1384 419 1353 400 q 1431 467 1415 439 l 1508 600 q 1518 633 1518 618 q 1479 667 1518 667 q 1422 647 1453 667 q 1375 600 1390 628 "},"œ":{"ha":1146,"x_min":-10,"x_max":2024,"o":"m 1288 333 q 1229 314 1260 333 q 1182 267 1199 294 l 1106 133 q 1094 100 1094 115 q 1133 67 1094 67 q 1192 86 1161 67 q 1239 133 1222 106 l 1276 200 q 1324 247 1293 228 q 1382 267 1354 267 l 1715 267 q 1754 233 1754 267 q 1743 200 1754 218 l 1667 67 q 1620 19 1651 39 q 1561 0 1589 0 l 28 0 q -10 33 -10 0 q 0 67 -10 49 l 154 333 q 201 381 169 361 q 260 400 232 400 l 726 400 l 726 400 q 784 419 753 400 q 831 467 815 439 l 908 600 q 918 633 918 618 q 879 667 918 667 l 879 667 q 822 647 853 667 q 775 600 790 628 l 736 533 q 690 486 721 506 q 631 467 658 467 l 297 467 q 260 500 260 467 q 269 533 260 515 l 346 667 q 393 714 363 694 q 451 733 424 733 l 1985 733 q 2024 700 2024 733 q 2013 667 2024 685 l 1860 400 q 1813 353 1843 372 q 1754 333 1782 333 l 1288 333 m 639 133 l 715 267 q 726 300 726 285 q 688 333 726 333 l 688 333 q 629 314 660 333 q 582 267 599 294 l 506 133 q 494 100 494 115 q 533 67 494 67 l 533 67 q 592 86 561 67 q 639 133 622 106 m 1375 600 l 1297 467 q 1288 433 1288 449 q 1326 400 1288 400 q 1384 419 1353 400 q 1431 467 1415 439 l 1508 600 q 1518 633 1518 618 q 1479 667 1518 667 q 1422 647 1453 667 q 1375 600 1390 628 "},"“":{"ha":1146,"x_min":417,"x_max":1668,"o":"m 1658 1067 l 1274 400 q 1229 364 1253 364 q 1210 376 1217 364 l 1025 690 q 1017 725 1017 703 q 1038 800 1017 764 l 1192 1067 q 1238 1114 1207 1094 q 1297 1133 1269 1133 l 1631 1133 q 1668 1100 1668 1133 q 1658 1067 1668 1085 m 1058 1067 l 674 400 q 629 364 653 364 q 610 376 617 364 l 425 690 q 417 725 417 703 q 438 800 417 764 l 592 1067 q 638 1114 607 1094 q 697 1133 669 1133 l 1031 1133 q 1068 1100 1068 1133 q 1058 1067 1068 1085 "},"”":{"ha":1146,"x_min":208,"x_max":1460,"o":"m 218 400 l 604 1067 q 647 1103 625 1103 q 668 1090 660 1103 l 853 776 q 860 742 860 764 q 839 667 860 703 l 685 400 q 638 353 669 372 q 581 333 607 333 l 247 333 q 208 367 208 333 q 218 400 208 382 m 1268 1090 l 1453 776 q 1460 742 1460 764 q 1439 667 1460 703 l 1285 400 q 1238 353 1269 372 q 1181 333 1207 333 l 847 333 q 808 367 808 333 q 818 400 808 382 l 1204 1067 q 1247 1103 1225 1103 q 1268 1090 1260 1103 "},"‘":{"ha":1146,"x_min":-8,"x_max":644,"o":"m 633 1067 l 249 400 q 204 364 228 364 q 185 376 192 364 l 0 690 q -8 725 -8 703 q 13 800 -8 764 l 167 1067 q 214 1114 183 1094 q 272 1133 244 1133 l 606 1133 q 644 1100 644 1133 q 633 1067 644 1085 "},"’":{"ha":1146,"x_min":-10,"x_max":642,"o":"m 449 1090 l 633 776 q 642 742 642 764 q 621 667 642 703 l 467 400 q 420 353 451 372 q 361 333 389 333 l 28 333 q -10 367 -10 333 q 0 400 -10 382 l 385 1067 q 429 1103 406 1103 q 449 1090 442 1103 "},"÷":{"ha":1146,"x_min":-10,"x_max":1154,"o":"m 182 533 l 1115 533 q 1154 500 1154 533 q 1143 467 1154 485 l 1067 333 q 1020 286 1051 306 q 961 267 989 267 l 28 267 q -10 300 -10 267 q 0 333 -10 315 l 76 467 q 124 514 93 494 q 182 533 154 533 m 668 567 q 569 599 604 567 q 533 683 533 631 q 569 800 533 738 q 733 965 625 897 q 938 1033 840 1033 q 1037 1001 1001 1033 q 1072 917 1072 969 q 1036 800 1072 863 q 873 635 981 703 q 668 567 765 567 m 475 233 q 574 201 539 233 q 610 117 610 169 q 574 0 610 63 q 410 -165 518 -97 q 206 -233 303 -233 q 107 -201 143 -233 q 71 -117 71 -169 q 107 0 71 -62 q 272 165 164 97 q 475 233 379 233 "},"‚":{"ha":1146,"x_min":-8,"x_max":644,"o":"m 633 333 l 249 -333 q 204 -369 228 -369 q 185 -357 192 -369 l 0 -43 q -8 -8 -8 -31 q 13 67 -8 31 l 167 333 q 214 381 183 361 q 272 400 244 400 l 606 400 q 644 367 644 400 q 633 333 644 351 "},"„":{"ha":1146,"x_min":-8,"x_max":1244,"o":"m 633 333 l 249 -333 q 204 -369 228 -369 q 185 -357 192 -369 l 0 -43 q -8 -8 -8 -31 q 13 67 -8 31 l 167 333 q 214 381 183 361 q 272 400 244 400 l 606 400 q 644 367 644 400 q 633 333 644 351 m 1233 333 l 849 -333 q 804 -369 828 -369 q 785 -357 792 -369 l 600 -43 q 592 -8 592 -31 q 613 67 592 31 l 767 333 q 814 381 783 361 q 872 400 844 400 l 1206 400 q 1244 367 1244 400 q 1233 333 1244 351 "},"‰":{"ha":1146,"x_min":0,"x_max":1676,"o":"m 404 1033 q 503 1001 468 1033 q 539 917 539 969 q 503 800 539 863 q 340 635 447 703 q 135 567 232 567 q 35 599 71 567 q 0 683 0 631 q 36 800 0 738 q 199 965 92 897 q 404 1033 307 1033 m 1008 233 q 1108 201 1072 233 q 1143 117 1143 169 q 1107 0 1143 63 q 944 -165 1051 -97 q 739 -233 836 -233 q 640 -201 676 -233 q 604 -117 604 -169 q 640 0 604 -62 q 805 165 697 97 q 1008 233 913 233 m 1542 233 q 1641 201 1606 233 q 1676 117 1676 169 q 1640 0 1676 63 q 1477 -165 1585 -97 q 1272 -233 1369 -233 q 1174 -201 1210 -233 q 1138 -117 1138 -169 q 1174 0 1138 -62 q 1338 165 1231 97 q 1542 233 1446 233 m 1032 792 l 319 -442 q 275 -478 299 -478 q 256 -464 263 -478 l 71 -151 q 63 -117 63 -137 q 83 -42 63 -76 l 796 1192 q 840 1228 817 1228 q 860 1215 853 1228 l 1044 901 q 1051 867 1051 889 q 1032 792 1051 828 "},"¦":{"ha":1146,"x_min":-4,"x_max":956,"o":"m 6 67 l 160 333 q 207 381 176 361 q 265 400 238 400 l 599 400 q 638 367 638 400 q 626 333 638 351 l 472 67 q 426 19 457 39 q 368 0 396 0 l 35 0 q -4 33 -4 0 q 6 67 -4 49 m 675 533 l 342 533 q 304 567 304 533 q 314 600 304 582 l 699 1267 q 743 1303 719 1303 q 763 1290 756 1303 l 947 976 q 956 942 956 964 q 935 867 956 903 l 781 600 q 734 553 765 572 q 675 533 703 533 "},"Ð":{"ha":1146,"x_min":-6,"x_max":1507,"o":"m 1314 1207 l 1499 893 q 1507 856 1507 879 q 1490 792 1507 821 l 1072 67 q 1025 19 1056 39 q 967 0 994 0 l 33 0 q -6 33 -6 0 q 6 67 -6 49 l 351 667 q 398 714 367 694 q 457 733 429 733 l 924 733 l 924 733 q 981 753 950 733 q 1028 800 1013 772 l 1028 800 q 1039 833 1039 818 q 1000 867 1039 867 l 1000 867 q 961 900 961 867 q 972 933 961 915 l 972 933 q 1019 981 988 961 q 1078 1000 1050 1000 l 1078 1000 q 1135 1019 1104 1000 q 1182 1067 1167 1039 l 1250 1183 q 1293 1219 1271 1219 q 1314 1207 1306 1219 m 643 133 l 913 600 q 924 633 924 618 q 885 667 924 667 l 885 667 q 826 647 857 667 q 779 600 796 628 l 510 133 q 500 100 500 115 q 539 67 500 67 l 539 67 q 597 86 565 67 q 643 133 628 106 "},"ð":{"ha":1146,"x_min":-6,"x_max":1507,"o":"m 1314 1207 l 1499 893 q 1507 856 1507 879 q 1490 792 1507 821 l 1072 67 q 1025 19 1056 39 q 967 0 994 0 l 33 0 q -6 33 -6 0 q 6 67 -6 49 l 351 667 q 398 714 367 694 q 457 733 429 733 l 924 733 l 924 733 q 981 753 950 733 q 1028 800 1013 772 l 1028 800 q 1039 833 1039 818 q 1000 867 1039 867 l 1000 867 q 961 900 961 867 q 972 933 961 915 l 972 933 q 1019 981 988 961 q 1078 1000 1050 1000 l 1078 1000 q 1135 1019 1104 1000 q 1182 1067 1167 1039 l 1250 1183 q 1293 1219 1271 1219 q 1314 1207 1306 1219 m 643 133 l 913 600 q 924 633 924 618 q 885 667 924 667 l 885 667 q 826 647 857 667 q 779 600 796 628 l 510 133 q 500 100 500 115 q 539 67 500 67 l 539 67 q 597 86 565 67 q 643 133 628 106 "},"Þ":{"ha":1146,"x_min":-8,"x_max":1503,"o":"m 999 733 l 1464 733 q 1503 700 1503 733 q 1493 667 1503 685 l 1146 67 q 1099 19 1131 39 q 1040 0 1068 0 l 575 0 q 517 -19 547 0 q 469 -67 486 -39 l 249 -450 q 204 -486 228 -486 q 185 -474 192 -486 l 0 -160 q -8 -122 -8 -146 q 8 -58 -8 -87 l 725 1183 q 769 1219 746 1219 q 789 1207 782 1219 l 974 893 q 982 856 982 879 q 965 792 982 821 q 957 765 957 778 q 999 733 957 733 m 614 67 q 671 86 640 67 q 718 133 701 106 l 988 600 q 997 633 997 618 q 960 667 997 667 q 901 647 932 667 q 856 600 871 628 l 586 133 q 575 100 575 115 q 614 67 575 67 "},"þ":{"ha":1146,"x_min":-8,"x_max":1503,"o":"m 999 733 l 1464 733 q 1503 700 1503 733 q 1493 667 1503 685 l 1146 67 q 1099 19 1131 39 q 1040 0 1068 0 l 575 0 q 517 -19 547 0 q 469 -67 486 -39 l 249 -450 q 204 -486 228 -486 q 185 -474 192 -486 l 0 -160 q -8 -122 -8 -146 q 8 -58 -8 -87 l 725 1183 q 769 1219 746 1219 q 789 1207 782 1219 l 974 893 q 982 856 982 879 q 965 792 982 821 q 957 765 957 778 q 999 733 957 733 m 614 67 q 671 86 640 67 q 718 133 701 106 l 988 600 q 997 633 997 618 q 960 667 997 667 q 901 647 932 667 q 856 600 871 628 l 586 133 q 575 100 575 115 q 614 67 575 67 "},"­":{"ha":1146,"x_min":18,"x_max":1182,"o":"m 210 400 l 1143 400 q 1182 367 1182 400 q 1171 333 1182 351 l 1094 200 q 1048 153 1079 172 q 989 133 1017 133 l 56 133 q 18 167 18 133 q 28 200 18 182 l 104 333 q 151 381 121 361 q 210 400 182 400 "},"Ł":{"ha":1146,"x_min":1,"x_max":914,"o":"m 721 1207 l 906 893 q 914 856 914 879 q 897 792 914 821 l 479 67 q 432 19 463 39 q 374 0 401 0 l 40 0 q 1 33 1 0 q 13 67 1 49 l 436 800 l 436 800 q 446 833 446 818 q 408 867 446 861 q 369 900 369 872 q 379 933 369 915 l 379 933 q 485 1000 408 983 q 590 1067 561 1017 l 657 1183 q 701 1219 678 1219 q 721 1207 714 1219 "},"ł":{"ha":1146,"x_min":1,"x_max":914,"o":"m 721 1207 l 906 893 q 914 856 914 879 q 897 792 914 821 l 479 67 q 432 19 463 39 q 374 0 401 0 l 40 0 q 1 33 1 0 q 13 67 1 49 l 436 800 l 436 800 q 446 833 446 818 q 408 867 446 861 q 369 900 369 872 q 379 933 369 915 l 379 933 q 485 1000 408 983 q 590 1067 561 1017 l 657 1183 q 701 1219 678 1219 q 721 1207 714 1219 "}}}
